<svg width="32" height="32" viewBox="0 0 32 32" fill="none" xmlns="http://www.w3.org/2000/svg">
<path d="M9.0257 12.9451C9.0257 13.3451 9.0577 13.6652 9.13771 13.9372C9.21773 14.1293 9.32974 14.3853 9.47377 14.6734C9.53778 14.7374 9.55378 14.8334 9.55378 14.9134C9.55378 15.0254 9.48977 15.1214 9.34575 15.2334L8.67364 15.6815C8.57763 15.7455 8.48161 15.7775 8.4016 15.7775C8.28958 15.7775 8.19357 15.7135 8.08155 15.6175C7.93753 15.4575 7.80951 15.2974 7.69749 15.1214C7.60147 14.9454 7.48946 14.7374 7.37744 14.4973C6.54531 15.4735 5.50515 15.9696 4.24095 15.9696C3.34481 15.9696 2.6407 15.7135 2.11262 15.2014C1.60054 14.6894 1.3285 14.0012 1.3285 13.1371C1.3285 12.257 1.64855 11.5369 2.28865 10.9608C2.94475 10.4167 3.80888 10.1286 4.89705 10.1286C5.26511 10.1286 5.60116 10.1606 6.03323 10.2247C6.40129 10.2727 6.83335 10.3527 7.24942 10.4487V9.68057C7.24942 8.86445 7.08939 8.33636 6.75334 7.96831C6.40129 7.63225 5.8412 7.48823 5.02507 7.48823C4.64101 7.48823 4.25695 7.53624 3.87289 7.61625C3.47283 7.71227 3.08877 7.82428 2.72071 7.98431C2.54469 8.04832 2.40066 8.09633 2.35266 8.11233C2.27264 8.14433 2.22464 8.14433 2.17663 8.14433C2.03261 8.14433 1.95259 8.04832 1.95259 7.82428V7.2962C1.95259 7.13618 1.9686 7.00816 2.03261 6.92814C2.08061 6.84813 2.17663 6.78412 2.32065 6.73611C2.70471 6.51208 3.13678 6.35205 3.66486 6.22403C4.20809 6.082 4.76764 6.01205 5.32912 6.016C6.59332 6.016 7.52146 6.30405 8.11355 6.88014C8.70565 7.45623 8.99369 8.33636 8.99369 9.50455V12.9451H9.0257ZM4.70502 14.5773C5.05708 14.5773 5.40913 14.5133 5.79319 14.3853C6.17725 14.2573 6.5133 14.0172 6.80135 13.6972C6.97738 13.4892 7.1054 13.2651 7.20141 13.0091C7.20141 12.7531 7.28142 12.449 7.28142 12.0809V11.6489C6.96137 11.5369 6.64132 11.5369 6.28927 11.4568C5.95966 11.4208 5.62862 11.3995 5.29711 11.3928C4.577 11.3928 4.06492 11.5369 3.71287 11.8249C3.36081 12.113 3.20079 12.513 3.20079 13.0411C3.20079 13.5532 3.3128 13.9372 3.58485 14.1773C3.84089 14.4493 4.20894 14.5773 4.70502 14.5773ZM13.2504 15.7135C13.0954 15.7181 12.9417 15.6852 12.8023 15.6175C12.7543 15.5375 12.6743 15.3935 12.6103 15.2014L10.1139 6.97615C10.0499 6.73611 10.0179 6.6241 10.0179 6.54409C10.0179 6.36806 10.0979 6.27204 10.2739 6.27204H11.3141C11.5221 6.27204 11.6661 6.30405 11.7301 6.38406C11.8261 6.44807 11.8901 6.59209 11.9542 6.80012L13.7304 13.8412L15.3947 6.80012C15.4427 6.59209 15.5067 6.44807 15.6027 6.38406C15.6827 6.32005 15.8268 6.27204 16.0028 6.27204H16.8829C17.0749 6.27204 17.219 6.30405 17.299 6.38406C17.379 6.44807 17.459 6.59209 17.507 6.80012L19.2033 13.9372L21.0276 6.80012C21.0916 6.59209 21.1716 6.44807 21.2356 6.38406C21.3316 6.32005 21.4596 6.27204 21.6517 6.27204H22.6438C22.8198 6.27204 22.9159 6.36806 22.9159 6.54409C22.9159 6.59209 22.8999 6.6561 22.8839 6.73611C22.8839 6.73611 22.8518 6.86413 22.8198 6.97615L20.2434 15.2014C20.1794 15.4255 20.1154 15.5375 20.0034 15.6175C19.9394 15.6815 19.7954 15.7295 19.6193 15.7295H18.7072C18.4992 15.7295 18.4032 15.6975 18.2751 15.6175C18.1675 15.5034 18.1001 15.3573 18.0831 15.2014L16.4348 8.33636L14.7866 15.1854C14.7386 15.3935 14.6746 15.5375 14.5946 15.6175C14.4624 15.6895 14.3127 15.7228 14.1625 15.7135H13.2504ZM26.9325 16.0016C26.4044 16.0016 25.8123 15.9375 25.2842 15.8095C24.7561 15.6815 24.3401 15.5375 24.068 15.3935C23.9291 15.3266 23.8124 15.221 23.732 15.0894C23.6885 14.9997 23.6666 14.9011 23.668 14.8014V14.2573C23.668 14.0333 23.748 13.9372 23.908 13.9372H24.1C24.1641 13.9372 24.2601 14.0172 24.3721 14.0653C24.7241 14.2253 25.1242 14.3533 25.5403 14.4333C25.9723 14.5133 26.4044 14.5613 26.8045 14.5613C27.4766 14.5613 28.0046 14.4493 28.3567 14.2093C28.7248 13.9372 28.9168 13.6332 28.9168 13.2011C28.9168 12.8971 28.8048 12.657 28.6287 12.449C28.4367 12.257 28.0687 12.0649 27.5566 11.9049L26.0043 11.4248C25.2362 11.1688 24.6601 10.8168 24.3081 10.3367C23.9645 9.89229 23.7787 9.34614 23.78 8.78443C23.78 8.33636 23.876 7.9523 24.068 7.61625C24.2601 7.2642 24.5161 6.97615 24.8042 6.73611C25.1562 6.49608 25.5083 6.32005 25.9403 6.19203C26.3564 6.06401 26.8045 6 27.2845 6C27.5086 6 27.7486 6.016 28.0047 6.04801C28.2287 6.08001 28.4527 6.12802 28.6768 6.16002C28.9008 6.22403 29.0928 6.27204 29.2848 6.33605C29.4769 6.40006 29.6049 6.46407 29.7329 6.52808C29.8769 6.60809 29.989 6.68811 30.053 6.78412C30.117 6.88014 30.149 6.99215 30.149 7.13618V7.64826C30.149 7.87229 30.069 7.98431 29.9089 7.98431C29.8289 7.98431 29.6849 7.9363 29.4929 7.85629C28.9008 7.58425 28.2127 7.44022 27.4606 7.44022C26.8525 7.44022 26.4044 7.53624 26.0363 7.74427C25.7163 7.9363 25.5403 8.25635 25.5403 8.68842C25.5403 8.99247 25.6523 9.24851 25.8603 9.44054C26.0683 9.64857 26.4684 9.8406 27.0285 10.0326L28.5487 10.5127C29.3169 10.7367 29.8609 11.0888 30.197 11.5369C30.517 11.9689 30.6771 12.465 30.6771 13.0251C30.6771 13.4732 30.5811 13.8892 30.405 14.2573C30.213 14.6093 29.957 14.9294 29.6049 15.1854C29.3009 15.4575 28.9008 15.6495 28.4527 15.7935C28.0047 15.9375 27.4606 16.0016 26.9325 16.0016ZM28.9328 21.1864C25.4282 23.7628 20.3395 25.139 16.0028 25.139C9.84182 25.139 4.32096 22.8666 0.144312 19.106C-0.19174 18.802 0.112307 18.4019 0.512369 18.642C5.02507 21.2504 10.5779 22.8346 16.3388 22.8346C20.2274 22.8346 24.5001 22.0345 28.4207 20.3382C29.0128 20.0982 29.5089 20.7543 28.9328 21.1864ZM30.405 19.5381C29.941 18.946 27.4286 19.2501 26.2924 19.3781C25.9563 19.4261 25.9083 19.122 26.2124 18.898C28.2127 17.5058 31.5092 17.9379 31.8773 18.3699C32.2613 18.85 31.7812 22.1465 29.9089 23.7148C29.6049 23.9548 29.3329 23.8268 29.4609 23.5387C29.8929 22.4506 30.8371 20.0822 30.405 19.5381Z" fill="black"/>
</svg>
