<svg width="32" height="32" viewBox="0 0 32 32" fill="none" xmlns="http://www.w3.org/2000/svg">
<path d="M29.8 1H2.2C1.53625 1 1 1.53625 1 2.2V29.8C1 30.4638 1.53625 31 2.2 31H29.8C30.4638 31 31 30.4638 31 29.8V2.2C31 1.53625 30.4638 1 29.8 1ZM16.0412 16.2287L8.84125 22.2662C8.64625 22.4312 8.35 22.2925 8.35 22.0375V19.6863C8.35 19.6 8.39125 19.5138 8.45875 19.4575L12.5763 16L8.45875 12.5425C8.42428 12.5153 8.39654 12.4805 8.37768 12.4408C8.35883 12.4011 8.34935 12.3577 8.35 12.3138V9.9625C8.35 9.7075 8.64625 9.56875 8.84125 9.73375L16.0412 15.7675C16.1875 15.8875 16.1875 16.1087 16.0412 16.2287ZM23.65 22.0375C23.65 22.2025 23.5225 22.3375 23.3688 22.3375H16.4313C16.2775 22.3375 16.15 22.2025 16.15 22.0375V20.2375C16.15 20.0725 16.2775 19.9375 16.4313 19.9375H23.3688C23.5225 19.9375 23.65 20.0725 23.65 20.2375V22.0375Z" fill="black"/>
</svg>
