<svg width="167" height="167" viewBox="0 0 167 167" fill="none" xmlns="http://www.w3.org/2000/svg">
<path d="M89.5869 11.3859L84.7868 11.0603L85.3616 2.58479L90.1617 2.9103L90.0823 4.08134L86.6735 3.85018L86.5174 6.15168L89.7117 6.36829L89.6327 7.53354L86.4384 7.31693L86.258 9.97786L89.6667 10.209L89.5869 11.3859Z" fill="black"/>
<path d="M98.0963 12.5884L97.3451 5.12156L97.2942 5.10955C97.269 5.26679 97.2324 5.48103 97.1843 5.75227C97.1362 6.02351 97.0818 6.31315 97.021 6.6212C96.9602 6.92925 96.8969 7.22277 96.8311 7.50176L95.7607 12.0372L94.5279 11.7463L96.4792 3.47838L98.385 3.92816L99.1177 11.0683L99.1517 11.0763L103.079 5.03594L104.979 5.48439L103.028 13.7523L101.733 13.4466L102.819 8.84331C102.879 8.59071 102.947 8.31827 103.024 8.02598C103.105 7.73458 103.182 7.45826 103.255 7.19702C103.333 6.93667 103.394 6.72821 103.439 6.57165L103.393 6.56097L99.2952 12.8714L98.0963 12.5884Z" fill="black"/>
<path d="M111.289 7.4515L113.612 8.44703C114.62 8.8788 115.317 9.35053 115.705 9.8622C116.093 10.3739 116.133 10.9875 115.826 11.7032C115.698 12.0023 115.529 12.25 115.318 12.4464C115.113 12.6407 114.877 12.7735 114.61 12.8447C114.345 12.9123 114.055 12.9103 113.741 12.8386L113.718 12.892C113.997 13.0751 114.226 13.2847 114.403 13.5207C114.583 13.7582 114.687 14.0324 114.714 14.3431C114.745 14.6554 114.674 15.0128 114.501 15.4151C114.297 15.8922 114.009 16.2493 113.638 16.4864C113.27 16.7249 112.839 16.8414 112.344 16.8359C111.852 16.8318 111.32 16.707 110.747 16.4614L107.943 15.2599L111.289 7.4515ZM111.191 11.2213L112.419 11.7477C112.999 11.9964 113.442 12.0744 113.747 11.9818C114.053 11.8892 114.283 11.6613 114.439 11.2982C114.597 10.9279 114.578 10.6036 114.381 10.3254C114.188 10.0487 113.803 9.78678 113.226 9.53961L112.115 9.06359L111.191 11.2213ZM110.747 12.2574L109.685 14.7356L111.036 15.3146C111.634 15.5709 112.104 15.6352 112.445 15.5075C112.786 15.3799 113.042 15.1184 113.211 14.7232C113.315 14.4811 113.35 14.2473 113.316 14.022C113.285 13.7982 113.168 13.5856 112.963 13.3842C112.76 13.1792 112.45 12.9875 112.034 12.809L110.747 12.2574Z" fill="black"/>
<path d="M124.342 13.7422C124.965 14.1272 125.432 14.5208 125.744 14.9229C126.059 15.3271 126.219 15.7452 126.225 16.1771C126.235 16.6111 126.092 17.0669 125.796 17.5447C125.576 17.9005 125.323 18.1629 125.036 18.3318C124.75 18.5007 124.448 18.6013 124.132 18.6336C123.816 18.6659 123.506 18.6561 123.201 18.6042L123.275 23.0699L121.936 22.2418L121.982 18.267L120.82 17.5489L119.03 20.445L117.844 19.7116L122.311 12.4862L124.342 13.7422ZM123.652 14.6817L122.886 14.208L121.425 16.5704L122.246 17.0776C122.796 17.4179 123.258 17.5622 123.631 17.5107C124.008 17.4613 124.32 17.2372 124.566 16.8386C124.825 16.4202 124.875 16.0411 124.716 15.7015C124.56 15.3639 124.206 15.024 123.652 14.6817Z" fill="black"/>
<path d="M130.705 28.7685L131.59 26.4293L129.107 24.3356L126.951 25.6036L125.827 24.656L133.742 20.1722L134.924 21.1685L131.838 29.7236L130.705 28.7685ZM132.087 25.282L132.967 22.9844C133.009 22.8875 133.066 22.7507 133.139 22.574C133.214 22.3944 133.291 22.2133 133.369 22.0307C133.449 21.8452 133.517 21.6896 133.572 21.5639C133.44 21.6604 133.288 21.7654 133.117 21.879C132.95 21.9921 132.791 22.0964 132.64 22.1917C132.492 22.2896 132.377 22.3653 132.297 22.4189L130.176 23.6714L132.087 25.282Z" fill="black"/>
<path d="M142.696 30.1876C142.427 29.8826 142.131 29.6583 141.808 29.5146C141.487 29.3738 141.149 29.3129 140.794 29.3319C140.442 29.3483 140.079 29.4437 139.706 29.618C139.336 29.7897 138.966 30.0383 138.597 30.3638C138.103 30.7995 137.739 31.2447 137.505 31.6994C137.274 32.1515 137.188 32.6045 137.247 33.0583C137.31 33.5095 137.533 33.953 137.918 34.3887C138.156 34.6588 138.414 34.8986 138.692 35.1081C138.97 35.3175 139.274 35.519 139.605 35.7126L138.716 36.4969C138.387 36.3281 138.082 36.1321 137.802 35.9087C137.522 35.6854 137.23 35.401 136.925 35.0553C136.351 34.4047 136.009 33.7453 135.9 33.077C135.793 32.4117 135.892 31.7565 136.196 31.1113C136.502 30.469 136.985 29.857 137.644 29.2751C138.126 28.8497 138.627 28.5269 139.146 28.3068C139.664 28.0867 140.182 27.9763 140.698 27.9756C141.217 27.9724 141.72 28.0889 142.207 28.3251C142.7 28.5618 143.161 28.9226 143.589 29.4077C143.871 29.7272 144.111 30.0729 144.31 30.4449C144.515 30.8172 144.668 31.1931 144.771 31.5728L143.585 31.968C143.495 31.655 143.381 31.3446 143.244 31.0369C143.107 30.7292 142.924 30.4461 142.696 30.1876Z" fill="black"/>
<path d="M141.558 40.5245L148.546 35.6942L149.339 36.8414L142.351 41.6716L141.558 40.5245Z" fill="black"/>
<path d="M148.498 52.1185L147.713 50.595L151.833 43.7898L151.809 43.7433C151.613 43.8618 151.404 43.9848 151.182 44.1123C150.962 44.2432 150.733 44.3743 150.496 44.5054C150.26 44.64 150.02 44.7747 149.776 44.9093L145.83 46.9436L145.25 45.8177L152.8 41.9249L153.581 43.4382L149.499 50.2168L149.517 50.253C149.689 50.1556 149.886 50.0431 150.108 49.9156C150.33 49.7881 150.559 49.6571 150.795 49.5225C151.035 49.3896 151.269 49.2629 151.494 49.1423L155.466 47.0947L156.049 48.2257L148.498 52.1185Z" fill="black"/>
<path d="M156.054 58.5513L157.018 61.5739L152.954 62.8697C152.679 62.49 152.43 62.0855 152.208 61.6563C151.985 61.2271 151.784 60.7301 151.604 60.1655C151.342 59.3425 151.282 58.5932 151.424 57.9175C151.571 57.2445 151.908 56.6614 152.434 56.1684C152.963 55.6743 153.667 55.2872 154.545 55.0071C155.391 54.7375 156.176 54.6682 156.9 54.7989C157.629 54.9284 158.263 55.2528 158.802 55.7719C159.346 56.2899 159.76 56.9954 160.045 57.8885C160.185 58.3277 160.276 58.7662 160.318 59.2041C160.365 59.6445 160.367 60.0605 160.325 60.452L159.081 60.3365C159.123 60.0222 159.134 59.6812 159.115 59.3134C159.095 58.9456 159.027 58.579 158.91 58.2137C158.725 57.6342 158.44 57.1742 158.055 56.8335C157.671 56.4965 157.215 56.2884 156.685 56.2092C156.16 56.1288 155.587 56.1875 154.967 56.3853C154.365 56.5771 153.866 56.8358 153.47 57.1614C153.074 57.487 152.809 57.8823 152.677 58.3474C152.55 58.8149 152.584 59.355 152.779 59.9676C152.877 60.2739 152.976 60.5288 153.078 60.7323C153.179 60.9358 153.279 61.1214 153.377 61.2893L155.464 60.6238L154.919 58.9132L156.054 58.5513Z" fill="black"/>
<path d="M164.031 83.8191L155.451 81.9538L155.388 80.4327L160.414 78.805C160.537 78.765 160.682 78.7202 160.851 78.6706C161.019 78.6209 161.192 78.5711 161.368 78.5211C161.544 78.475 161.706 78.4335 161.851 78.3964C162.001 78.363 162.117 78.3389 162.197 78.3239C162.116 78.3195 162.001 78.3068 161.853 78.2858C161.704 78.2649 161.54 78.2387 161.361 78.2074C161.185 78.1798 161.009 78.1483 160.834 78.113C160.661 78.0775 160.509 78.045 160.376 78.0157L155.238 76.8333L155.175 75.318L163.571 72.7537L163.629 74.1528L158.705 75.5844C158.548 75.6297 158.377 75.6755 158.193 75.7219C158.013 75.7721 157.83 75.8184 157.646 75.861C157.462 75.9074 157.282 75.9498 157.105 75.9881C156.932 76.0263 156.774 76.0581 156.632 76.0834C156.78 76.0966 156.943 76.115 157.123 76.1386C157.306 76.162 157.491 76.1873 157.678 76.2144C157.87 76.2452 158.053 76.2764 158.229 76.3078C158.405 76.3432 158.563 76.3792 158.704 76.416L163.772 77.5897L163.828 78.9482L158.859 80.5677C158.718 80.6162 158.559 80.6635 158.382 80.7096C158.206 80.7596 158.026 80.8078 157.842 80.8542C157.658 80.9006 157.479 80.9429 157.306 80.9811C157.133 81.0193 156.978 81.051 156.839 81.0761C157.03 81.0953 157.248 81.1212 157.494 81.1536C157.739 81.1861 157.989 81.2242 158.243 81.2679C158.497 81.3116 158.731 81.3562 158.946 81.4015L163.972 82.4141L164.031 83.8191Z" fill="black"/>
<path d="M154.46 95.057L154.653 93.6818L158.451 94.216L158.997 90.3379L155.199 89.8037L155.393 88.4227L163.805 89.6062L163.611 90.9871L160.17 90.503L159.625 94.3812L163.066 94.8652L162.872 96.2404L154.46 95.057Z" fill="black"/>
<path d="M153.417 100.141L161.609 102.389L161.24 103.734L153.048 101.486L153.417 100.141Z" fill="black"/>
<path d="M150.587 109.062L151.107 107.762L157.894 110.476L158.817 108.167L159.918 108.607L157.553 114.52L156.453 114.08L157.374 111.776L150.587 109.062Z" fill="black"/>
<path d="M145.551 119.461L147.926 115.277L155.314 119.471L152.939 123.655L151.918 123.075L153.605 120.104L151.599 118.965L150.018 121.75L149.002 121.173L150.583 118.389L148.263 117.072L146.577 120.043L145.551 119.461Z" fill="black"/>
<path d="M141.844 128.972C141.443 128.666 141.173 128.305 141.034 127.887C140.892 127.472 140.884 127.023 141.009 126.539C141.132 126.058 141.386 125.565 141.771 125.059C141.958 124.813 142.152 124.588 142.351 124.384C142.55 124.18 142.752 123.998 142.957 123.837C143.163 123.682 143.366 123.553 143.568 123.448L144.612 124.244C144.283 124.426 143.94 124.65 143.584 124.914C143.23 125.18 142.919 125.488 142.652 125.84C142.433 126.126 142.29 126.392 142.22 126.636C142.152 126.886 142.152 127.11 142.22 127.308C142.291 127.508 142.421 127.68 142.609 127.823C142.809 127.976 143.02 128.051 143.241 128.049C143.461 128.047 143.712 127.979 143.993 127.848C144.274 127.721 144.606 127.545 144.987 127.319C145.245 127.165 145.509 127.03 145.778 126.914C146.044 126.8 146.315 126.724 146.588 126.684C146.862 126.644 147.139 126.658 147.419 126.725C147.7 126.797 147.983 126.943 148.27 127.161C148.652 127.452 148.91 127.792 149.042 128.18C149.173 128.572 149.183 128.989 149.075 129.432C148.964 129.878 148.738 130.325 148.398 130.772C148.128 131.126 147.837 131.431 147.526 131.686C147.213 131.944 146.873 132.172 146.508 132.371L145.883 131.34C146.208 131.149 146.505 130.949 146.772 130.739C147.037 130.531 147.273 130.292 147.479 130.021C147.658 129.787 147.774 129.561 147.827 129.344C147.881 129.127 147.876 128.925 147.812 128.741C147.749 128.561 147.63 128.405 147.454 128.271C147.257 128.121 147.054 128.042 146.846 128.034C146.638 128.031 146.401 128.09 146.135 128.209C145.867 128.331 145.542 128.502 145.16 128.722C144.722 128.978 144.32 129.17 143.953 129.3C143.584 129.433 143.228 129.478 142.885 129.436C142.545 129.396 142.198 129.241 141.844 128.972Z" fill="black"/>
<path d="M141.238 139.041C140.46 139.813 139.734 140.218 139.06 140.254C138.386 140.289 137.764 140.02 137.193 139.446C136.934 139.185 136.728 138.895 136.576 138.577C136.424 138.264 136.35 137.925 136.354 137.561C136.361 137.199 136.463 136.816 136.662 136.412C136.858 136.01 137.176 135.59 137.615 135.154L138.259 134.515L136.015 132.255L137.005 131.273L142.99 137.301L141.238 139.041ZM140.489 138.155L141.186 137.463L139.078 135.34L138.537 135.876C138.227 136.184 137.998 136.482 137.852 136.769C137.709 137.059 137.66 137.34 137.705 137.611C137.751 137.882 137.903 138.149 138.163 138.41C138.509 138.759 138.873 138.913 139.254 138.874C139.632 138.837 140.044 138.597 140.489 138.155Z" fill="black"/>
<path d="M125.345 141.553L127.416 142.956L130.028 141.025L129.293 138.634L130.475 137.76L133.005 146.498L131.763 147.417L124.154 142.434L125.345 141.553ZM128.418 143.704L130.449 145.093C130.534 145.155 130.654 145.243 130.809 145.355C130.966 145.469 131.124 145.586 131.284 145.704C131.446 145.825 131.581 145.927 131.691 146.01C131.628 145.859 131.561 145.687 131.49 145.494C131.418 145.306 131.354 145.127 131.296 144.958C131.235 144.791 131.188 144.662 131.154 144.571L130.426 142.219L128.418 143.704Z" fill="black"/>
<path d="M121.186 152.887C121.546 152.697 121.833 152.461 122.047 152.18C122.259 151.901 122.396 151.586 122.46 151.236C122.526 150.89 122.518 150.515 122.435 150.111C122.354 149.711 122.198 149.294 121.967 148.86C121.657 148.278 121.309 147.821 120.921 147.487C120.535 147.157 120.114 146.969 119.659 146.921C119.206 146.877 118.723 146.992 118.209 147.264C117.891 147.433 117.598 147.629 117.33 147.85C117.062 148.072 116.795 148.321 116.53 148.598L115.973 147.552C116.214 147.27 116.476 147.019 116.758 146.799C117.04 146.579 117.384 146.361 117.791 146.144C118.558 145.737 119.278 145.557 119.954 145.606C120.626 145.657 121.24 145.905 121.797 146.35C122.351 146.797 122.834 147.409 123.247 148.186C123.549 148.753 123.746 149.315 123.84 149.871C123.934 150.426 123.921 150.955 123.802 151.457C123.685 151.963 123.454 152.425 123.111 152.844C122.767 153.269 122.309 153.633 121.738 153.937C121.362 154.137 120.969 154.291 120.561 154.398C120.152 154.51 119.751 154.572 119.357 154.584L119.248 153.339C119.574 153.324 119.902 153.285 120.233 153.223C120.564 153.161 120.882 153.049 121.186 152.887Z" fill="black"/>
<path d="M106.884 151.076L111.409 149.444L114.292 157.435L109.766 159.067L109.368 157.963L112.582 156.804L111.799 154.634L108.787 155.72L108.391 154.622L111.403 153.535L110.498 151.027L107.284 152.186L106.884 151.076Z" fill="black"/>
<path d="M97.0955 158.144C97.1497 158.532 97.1298 158.851 97.0359 159.103C96.942 159.355 96.7951 159.549 96.5952 159.687C96.3916 159.825 96.1535 159.913 95.8812 159.951C95.6126 159.988 95.3615 159.968 95.1278 159.892C94.8941 159.815 94.6976 159.668 94.5383 159.452C94.3752 159.236 94.2666 158.934 94.2124 158.547C94.1599 158.171 94.1823 157.855 94.2795 157.599C94.3729 157.343 94.5211 157.145 94.7242 157.003C94.9279 156.865 95.164 156.777 95.4326 156.739C95.705 156.701 95.958 156.721 96.1917 156.798C96.4221 156.879 96.6169 157.028 96.7762 157.244C96.936 157.464 97.0425 157.764 97.0955 158.144Z" fill="black"/>
<path d="M77.5203 154.704L82.3206 155.027L81.7504 163.503L76.9501 163.18L77.0289 162.009L80.4378 162.238L80.5926 159.937L77.3982 159.722L77.4766 158.556L80.671 158.771L80.8501 156.11L77.4412 155.881L77.5203 154.704Z" fill="black"/>
<path d="M69.0106 153.506L69.7659 160.972L69.8168 160.984C69.8418 160.827 69.8784 160.613 69.9263 160.342C69.9743 160.07 70.0285 159.781 70.0891 159.473C70.1497 159.164 70.2129 158.871 70.2786 158.592L71.3465 154.056L72.5795 154.346L70.6327 162.615L68.7266 162.166L67.99 155.027L67.9561 155.019L64.0322 161.061L62.1319 160.614L64.0787 152.345L65.3739 152.65L64.29 157.254C64.2305 157.506 64.1623 157.779 64.0856 158.071C64.005 158.362 63.928 158.639 63.8545 158.9C63.7773 159.16 63.7163 159.369 63.6715 159.526L63.7167 159.536L67.8116 153.224L69.0106 153.506Z" fill="black"/>
<path d="M55.8191 158.65L53.4953 157.656C52.4874 157.224 51.7895 156.753 51.4016 156.242C51.0137 155.73 50.9729 155.117 51.2792 154.401C51.4072 154.102 51.5764 153.854 51.7869 153.657C51.9923 153.463 52.2282 153.33 52.4947 153.259C52.7597 153.191 53.0496 153.193 53.3645 153.264L53.3873 153.211C53.1075 153.028 52.879 152.818 52.7018 152.582C52.5211 152.345 52.4172 152.071 52.39 151.76C52.3593 151.448 52.4301 151.091 52.6023 150.688C52.8065 150.211 53.0941 149.854 53.4653 149.616C53.8329 149.378 54.2642 149.261 54.7591 149.266C55.2504 149.27 55.7828 149.394 56.3562 149.64L59.1608 150.84L55.8191 158.65ZM55.9153 154.88L54.6866 154.354C54.1061 154.106 53.6633 154.028 53.3581 154.121C53.053 154.214 52.8227 154.442 52.6673 154.805C52.5088 155.175 52.5281 155.5 52.7251 155.778C52.9185 156.054 53.3037 156.316 53.8807 156.563L54.9918 157.038L55.9153 154.88ZM56.3587 153.844L57.4193 151.365L56.0677 150.787C55.4694 150.531 54.9996 150.467 54.6584 150.595C54.3172 150.722 54.062 150.984 53.8929 151.379C53.7892 151.621 53.7545 151.855 53.7887 152.081C53.8194 152.304 53.937 152.517 54.1416 152.718C54.3447 152.923 54.6546 153.115 55.0712 153.293L56.3587 153.844Z" fill="black"/>
<path d="M42.761 152.366C42.1381 151.981 41.6708 151.588 41.359 151.186C41.044 150.782 40.8832 150.364 40.8768 149.932C40.8671 149.498 41.0098 149.042 41.305 148.564C41.5248 148.208 41.778 147.946 42.0645 147.777C42.3511 147.608 42.6523 147.507 42.9683 147.475C43.2843 147.442 43.5948 147.452 43.8998 147.503L43.8236 143.038L45.1633 143.865L45.1192 147.84L46.281 148.558L48.0702 145.661L49.2567 146.393L44.7929 153.621L42.761 152.366ZM43.4507 151.426L44.217 151.899L45.6765 149.536L44.8558 149.03C44.3054 148.69 43.8435 148.546 43.4701 148.597C43.0935 148.647 42.782 148.871 42.5357 149.27C42.2772 149.688 42.2275 150.067 42.3865 150.407C42.5423 150.745 42.8971 151.084 43.4507 151.426Z" fill="black"/>
<path d="M36.3898 137.343L35.5057 139.683L37.99 141.775L40.1453 140.506L41.2697 141.453L33.3571 145.941L32.1749 144.945L35.2566 136.389L36.3898 137.343ZM35.0102 140.83L34.1307 143.128C34.0895 143.225 34.0325 143.362 33.9596 143.539C33.8843 143.719 33.8077 143.9 33.7299 144.082C33.6496 144.268 33.5818 144.424 33.5266 144.549C33.6585 144.453 33.8103 144.348 33.9821 144.234C34.1483 144.121 34.3071 144.016 34.4583 143.921C34.6067 143.823 34.7211 143.747 34.8018 143.694L36.9212 142.44L35.0102 140.83Z" fill="black"/>
<path d="M24.3985 135.93C24.6678 136.235 24.964 136.459 25.2872 136.603C25.6078 136.744 25.9457 136.804 26.3009 136.785C26.6532 136.769 27.0159 136.673 27.389 136.498C27.7592 136.327 28.1286 136.078 28.4973 135.752C28.9908 135.316 29.3546 134.871 29.5886 134.416C29.8197 133.964 29.9054 133.511 29.8457 133.057C29.783 132.606 29.5594 132.162 29.1747 131.727C28.9362 131.457 28.678 131.217 28.4 131.008C28.1221 130.799 27.8176 130.597 27.4865 130.404L28.3749 129.619C28.7048 129.788 29.0096 129.984 29.2894 130.207C29.5693 130.43 29.8618 130.714 30.167 131.06C30.7414 131.71 31.0834 132.369 31.193 133.037C31.3 133.703 31.2018 134.358 30.8983 135.003C30.5923 135.646 30.1098 136.258 29.4508 136.84C28.9689 137.266 28.4686 137.589 27.95 137.809C27.4314 138.03 26.9141 138.14 26.3981 138.141C25.8792 138.145 25.3759 138.029 24.8883 137.793C24.3952 137.556 23.9346 137.196 23.5063 136.711C23.2242 136.391 22.9835 136.046 22.7842 135.674C22.5795 135.302 22.4258 134.926 22.323 134.546L23.5084 134.15C23.5988 134.463 23.7127 134.774 23.8501 135.081C23.9875 135.389 24.1703 135.672 24.3985 135.93Z" fill="black"/>
<path d="M25.5356 125.593L18.5501 130.427L17.7565 129.28L24.7421 124.446L25.5356 125.593Z" fill="black"/>
<path d="M18.5851 114.003L19.3714 115.526L15.2544 122.333L15.2784 122.38C15.4744 122.261 15.6833 122.138 15.9051 122.01C16.1252 121.879 16.3539 121.748 16.5913 121.617C16.8269 121.482 17.0669 121.347 17.3112 121.213L21.2558 119.176L21.8369 120.302L14.2883 124.199L13.5074 122.686L17.5857 115.905L17.5671 115.869C17.3951 115.966 17.1981 116.079 16.9763 116.206C16.7544 116.334 16.5257 116.465 16.2901 116.6C16.0493 116.733 15.8161 116.86 15.5907 116.981L11.6203 119.03L11.0366 117.899L18.5851 114.003Z" fill="black"/>
<path d="M11.0287 107.574L10.0632 104.552L14.1258 103.254C14.4016 103.633 14.6508 104.038 14.8733 104.467C15.0958 104.896 15.2972 105.393 15.4776 105.957C15.7405 106.78 15.8009 107.529 15.6589 108.205C15.5121 108.878 15.1759 109.462 14.6503 109.955C14.121 110.449 13.4172 110.837 12.539 111.117C11.694 111.387 10.9091 111.457 10.1843 111.327C9.45575 111.198 8.82155 110.874 8.28166 110.355C7.73808 109.837 7.32364 109.132 7.03834 108.239C6.89805 107.8 6.80675 107.361 6.76445 106.923C6.71728 106.483 6.71452 106.067 6.75617 105.675L8.00062 105.79C7.95872 106.105 7.94771 106.446 7.96761 106.813C7.98752 107.181 8.05582 107.548 8.17254 107.913C8.35763 108.492 8.64283 108.952 9.02814 109.293C9.41227 109.63 9.86907 109.837 10.3985 109.916C10.9243 109.996 11.4972 109.937 12.1171 109.739C12.7185 109.547 13.2173 109.288 13.6134 108.962C14.0095 108.637 14.2736 108.241 14.4056 107.776C14.5327 107.308 14.4984 106.768 14.3027 106.156C14.2048 105.85 14.1051 105.595 14.0035 105.391C13.902 105.188 13.802 105.002 13.7036 104.834L11.617 105.501L12.1634 107.211L11.0287 107.574Z" fill="black"/>
<path d="M3.03767 82.3108L11.6184 84.1716L11.6824 85.6926L6.65644 87.323C6.53406 87.363 6.38862 87.4079 6.22012 87.4576C6.05161 87.5074 5.87924 87.5573 5.703 87.6073C5.52659 87.6535 5.36551 87.6952 5.21974 87.7323C5.06994 87.7658 4.95464 87.79 4.87386 87.805C4.95546 87.8094 5.07036 87.822 5.21857 87.8429C5.36678 87.8638 5.53072 87.8899 5.71038 87.9211C5.88601 87.9486 6.0618 87.98 6.23775 88.0152C6.40983 88.0506 6.5624 88.083 6.69545 88.1123L11.8338 89.2919L11.8975 90.8072L3.50301 93.376L3.44417 91.9769L8.3679 90.5427C8.52495 90.4973 8.69555 90.4514 8.8797 90.4048C9.05981 90.3546 9.24202 90.3082 9.42633 90.2655C9.61048 90.219 9.79091 90.1765 9.96764 90.1381C10.1405 90.0998 10.2981 90.068 10.4405 90.0426C10.2926 90.0294 10.129 90.0111 9.94969 89.9876C9.76648 89.9643 9.58126 89.9392 9.39402 89.9121C9.20275 89.8814 9.01922 89.8504 8.84343 89.819C8.66748 89.7837 8.50894 89.7478 8.36782 89.711L3.29964 88.5401L3.24251 87.1816L8.21067 85.5594C8.35208 85.5108 8.51099 85.4634 8.68739 85.4173C8.86363 85.3672 9.04383 85.3189 9.22797 85.2724C9.41212 85.2259 9.59062 85.1835 9.76348 85.1452C9.93634 85.1069 10.092 85.0752 10.2305 85.0499C10.0398 85.0308 9.82156 85.0051 9.57595 84.9728C9.33033 84.9405 9.0806 84.9025 8.82675 84.8589C8.5729 84.8153 8.33841 84.7709 8.12326 84.7257L3.09675 83.7158L3.03767 82.3108Z" fill="black"/>
<path d="M12.5993 71.0671L12.4066 72.4424L8.60871 71.9101L8.06517 75.7885L11.863 76.3208L11.6695 77.7018L3.25667 76.5228L3.45021 75.1418L6.89129 75.624L7.43483 71.7456L3.99375 71.2634L4.18649 69.8881L12.5993 71.0671Z" fill="black"/>
<path d="M13.6384 65.983L5.44507 63.7392L5.81342 62.3942L14.0067 64.638L13.6384 65.983Z" fill="black"/>
<path d="M16.468 57.0599L15.9487 58.3604L9.16017 55.6497L8.23795 57.9593L7.13712 57.5198L9.49867 51.6055L10.5995 52.045L9.67945 54.3492L16.468 57.0599Z" fill="black"/>
<path d="M21.4961 46.6585L19.1231 50.8438L11.7332 46.6539L14.1062 42.4686L15.1272 43.0475L13.4421 46.0197L15.4488 47.1574L17.0279 44.3723L18.0439 44.9483L16.4648 47.7334L18.7848 49.0489L20.47 46.0768L21.4961 46.6585Z" fill="black"/>
<path d="M25.1994 37.1461C25.6001 37.451 25.8704 37.8124 26.01 38.2302C26.152 38.6449 26.1605 39.0943 26.0356 39.5784C25.9129 40.0595 25.6593 40.5528 25.2746 41.0584C25.0869 41.305 24.8936 41.5303 24.6946 41.7342C24.4957 41.9381 24.2937 42.1204 24.0889 42.2809C23.8833 42.4359 23.6798 42.5658 23.4784 42.6706L22.4333 41.8754C22.7623 41.6925 23.1051 41.4691 23.4618 41.205C23.8154 40.9386 24.1259 40.6297 24.3933 40.2783C24.6114 39.9916 24.755 39.7261 24.8241 39.4817C24.8925 39.2319 24.8925 39.008 24.8241 38.81C24.7527 38.6096 24.6229 38.4379 24.4349 38.2948C24.2345 38.1423 24.0239 38.0673 23.8031 38.0696C23.5823 38.072 23.3315 38.1392 23.0509 38.2713C22.7696 38.3979 22.4383 38.5742 22.0571 38.8001C21.7989 38.9541 21.5353 39.0894 21.2664 39.2061C20.9999 39.3197 20.7297 39.3964 20.456 39.4364C20.1822 39.4763 19.9053 39.4628 19.6253 39.3958C19.3446 39.3233 19.0609 39.178 18.7742 38.9599C18.3919 38.669 18.1343 38.3294 18.0014 37.9411C17.8709 37.5498 17.8598 37.1325 17.9682 36.6893C18.079 36.243 18.3045 35.7964 18.6446 35.3494C18.9143 34.9949 19.2046 34.6901 19.5155 34.435C19.8288 34.1768 20.1682 33.9483 20.5337 33.7494L21.1587 34.7799C20.8336 34.9706 20.5374 35.1711 20.2702 35.3815C20.0053 35.5889 19.7697 35.8282 19.5633 36.0995C19.385 36.3338 19.2692 36.5596 19.2158 36.7769C19.1624 36.9943 19.1676 37.1954 19.2314 37.3802C19.2944 37.5596 19.4138 37.7162 19.5895 37.8499C19.7868 38 19.9897 38.0789 20.198 38.0865C20.4056 38.0887 20.6423 38.0303 20.9081 37.9113C21.1763 37.7892 21.5013 37.6179 21.8832 37.3974C22.3212 37.1417 22.7235 36.9488 23.09 36.8189C23.459 36.6858 23.8149 36.6403 24.1578 36.6822C24.4977 36.7217 24.8449 36.8763 25.1994 37.1461Z" fill="black"/>
<path d="M25.8008 27.0762C26.5783 26.3034 27.3041 25.8988 27.978 25.8625C28.6519 25.8262 29.2743 26.0952 29.845 26.6694C30.1044 26.9304 30.3104 27.22 30.4628 27.5382C30.6152 27.8509 30.6895 28.1894 30.6857 28.5537C30.6791 28.9153 30.5766 29.2984 30.3782 29.7032C30.1825 30.1053 29.8648 30.5248 29.4252 30.9617L28.7823 31.6007L31.027 33.8591L30.038 34.8422L24.0493 28.8171L25.8008 27.0762ZM26.55 27.9619L25.8536 28.6541L27.9631 30.7765L28.503 30.2399C28.8134 29.9313 29.0417 29.6334 29.1877 29.3463C29.331 29.0564 29.3798 28.7757 29.3341 28.5044C29.2883 28.2331 29.1358 27.967 28.8763 27.706C28.5295 27.357 28.1657 27.2025 27.7848 27.2425C27.4067 27.2797 26.9951 27.5195 26.55 27.9619Z" fill="black"/>
<path d="M41.6924 24.5555L39.6209 23.1538L37.0103 25.0865L37.7462 27.4769L36.5647 28.3516L34.0298 19.6152L35.272 18.6956L42.8832 23.6738L41.6924 24.5555ZM38.6191 22.4062L36.587 21.0187C36.5022 20.9562 36.3823 20.8691 36.2272 20.7573C36.0699 20.6425 35.9114 20.526 35.7518 20.408C35.5898 20.287 35.4541 20.185 35.3446 20.1022C35.408 20.2529 35.4751 20.4249 35.5459 20.6183C35.6176 20.8062 35.6823 20.9848 35.7402 21.1541C35.8011 21.321 35.8483 21.4499 35.8819 21.5408L36.611 23.8928L38.6191 22.4062Z" fill="black"/>
<path d="M45.8453 13.2193C45.4863 13.4104 45.1995 13.6465 44.9849 13.9275C44.7737 14.2068 44.6361 14.5213 44.5723 14.8713C44.5067 15.2178 44.5154 15.5928 44.5985 15.9962C44.6798 16.3961 44.8361 16.8132 45.0673 17.2475C45.3768 17.8287 45.7256 18.286 46.1136 18.6192C46.4998 18.9489 46.9206 19.1374 47.3758 19.1847C47.8292 19.2285 48.3124 19.1139 48.8253 18.8408C49.1433 18.6715 49.4363 18.476 49.7044 18.2542C49.9726 18.0325 50.2391 17.783 50.5041 17.5059L51.0612 18.5522C50.8206 18.8339 50.5593 19.0849 50.2772 19.3053C49.9952 19.5257 49.6508 19.7442 49.2439 19.9608C48.478 20.3686 47.7573 20.5483 47.082 20.4997C46.41 20.4493 45.7954 20.2017 45.2381 19.7567C44.6843 19.31 44.2007 18.6985 43.7875 17.9223C43.4853 17.3547 43.2872 16.7931 43.1932 16.2375C43.0993 15.6819 43.1117 15.1531 43.2306 14.6509C43.3476 14.1454 43.5775 13.6829 43.9203 13.2634C44.2646 12.8386 44.7223 12.4743 45.2934 12.1702C45.6695 11.97 46.0615 11.8161 46.4695 11.7086C46.879 11.5959 47.2803 11.5336 47.6734 11.5218L47.7833 12.7667C47.4579 12.782 47.1296 12.8207 46.7985 12.8829C46.4673 12.9451 46.1496 13.0572 45.8453 13.2193Z" fill="black"/>
<path d="M60.1482 15.0226L55.6234 16.6576L52.7365 8.66823L57.2612 7.03321L57.6601 8.13708L54.4469 9.29818L55.2308 11.4677L58.2419 10.3796L58.6388 11.4781L55.6277 12.5661L56.5341 15.0744L59.7473 13.9133L60.1482 15.0226Z" fill="black"/>
<path d="M69.9313 7.94973C69.877 7.56227 69.8967 7.24267 69.9905 6.99091C70.0843 6.73915 70.231 6.5445 70.4308 6.40697C70.6344 6.26889 70.8724 6.18076 71.1447 6.14256C71.4133 6.10491 71.6644 6.12445 71.8981 6.2012C72.1318 6.27795 72.3284 6.42445 72.4878 6.64071C72.6511 6.85642 72.7598 7.15801 72.8142 7.54546C72.8669 7.9214 72.8447 8.23744 72.7476 8.49357C72.6544 8.74917 72.5063 8.94792 72.3032 9.08983C72.0996 9.22791 71.8635 9.31577 71.595 9.35343C71.3226 9.39163 71.0696 9.37235 70.8359 9.2956C70.6054 9.21447 70.4105 9.06579 70.2511 8.84953C70.0912 8.62944 69.9846 8.32951 69.9313 7.94973Z" fill="black"/>
</svg>
