<svg width="32" height="32" viewBox="0 0 32 32" fill="none" xmlns="http://www.w3.org/2000/svg">
<path d="M31.696 13.672C31.6 13.608 30.8 12.984 29.072 12.984C28.624 12.984 28.176 13.032 27.728 13.112C27.392 10.872 25.52 9.736 25.44 9.688L24.976 9.416L24.688 9.848C24.304 10.424 24 11.08 23.872 11.752C23.552 13.032 23.744 14.248 24.4 15.288C23.616 15.736 22.336 15.848 22.064 15.848H0.992C0.448 15.848 0 16.296 0 16.856C0 18.696 0.288 20.536 0.928 22.264C1.648 24.168 2.736 25.576 4.128 26.44C5.696 27.4 8.272 27.944 11.2 27.944C12.464 27.944 13.776 27.832 15.072 27.592C16.864 27.272 18.592 26.648 20.176 25.736C21.4879 24.9858 22.6621 24.0173 23.648 22.872C25.328 21 26.32 18.872 27.04 17.032H27.344C29.168 17.032 30.304 16.296 30.928 15.672C31.344 15.288 31.648 14.824 31.872 14.28L32 13.896L31.696 13.672ZM2.96 15.256H5.776C5.904 15.256 6.032 15.144 6.032 15V12.472C6.032 12.344 5.92 12.216 5.776 12.216H2.96C2.816 12.216 2.704 12.328 2.704 12.472V15C2.72 15.144 2.816 15.256 2.96 15.256ZM6.848 15.256H9.664C9.792 15.256 9.92 15.144 9.92 15V12.472C9.92 12.344 9.808 12.216 9.664 12.216H6.848C6.704 12.216 6.592 12.328 6.592 12.472V15C6.608 15.144 6.704 15.256 6.848 15.256ZM10.8 15.256H13.6C13.76 15.256 13.872 15.144 13.872 15V12.472C13.872 12.344 13.776 12.216 13.6 12.216H10.8C10.672 12.216 10.56 12.328 10.56 12.472V15C10.56 15.144 10.656 15.256 10.8 15.256ZM14.704 15.256H17.536C17.664 15.256 17.776 15.144 17.776 15V12.472C17.776 12.344 17.68 12.216 17.536 12.216H14.704C14.576 12.216 14.464 12.328 14.464 12.472V15C14.464 15.144 14.576 15.256 14.704 15.256ZM6.848 11.672H9.664C9.792 11.672 9.92 11.528 9.92 11.384V8.872C9.92 8.728 9.808 8.616 9.664 8.616H6.848C6.704 8.616 6.592 8.712 6.592 8.872V11.384C6.608 11.528 6.704 11.672 6.848 11.672ZM10.8 11.672H13.6C13.76 11.672 13.872 11.528 13.872 11.384V8.872C13.872 8.728 13.776 8.616 13.6 8.616H10.8C10.672 8.616 10.56 8.712 10.56 8.872V11.384C10.56 11.528 10.656 11.672 10.8 11.672ZM14.704 11.672H17.536C17.664 11.672 17.776 11.528 17.776 11.384V8.872C17.776 8.728 17.664 8.616 17.536 8.616H14.704C14.576 8.616 14.464 8.712 14.464 8.872V11.384C14.464 11.528 14.576 11.672 14.704 11.672ZM14.704 8.024H17.536C17.664 8.024 17.776 7.912 17.776 7.768V5.272C17.776 5.112 17.664 5 17.536 5H14.704C14.576 5 14.464 5.096 14.464 5.272V7.768C14.464 7.896 14.576 8.024 14.704 8.024ZM18.64 15.256H21.456C21.6 15.256 21.712 15.144 21.712 15V12.472C21.712 12.344 21.6 12.216 21.456 12.216H18.64C18.512 12.216 18.4 12.328 18.4 12.472V15C18.4 15.144 18.512 15.256 18.64 15.256Z" fill="black"/>
</svg>
