<svg width="32" height="32" viewBox="0 0 32 32" fill="none" xmlns="http://www.w3.org/2000/svg">
<path d="M10.5 1C9.30653 1 8.16193 1.47411 7.31802 2.31802C6.47411 3.16193 6 4.30653 6 5.5C6 6.69347 6.47411 7.83807 7.31802 8.68198C8.16193 9.52589 9.30653 10 10.5 10H21C22.1935 10 23.3381 9.52589 24.182 8.68198C25.0259 7.83807 25.5 6.69347 25.5 5.5C25.5 4.30653 25.0259 3.16193 24.182 2.31802C23.3381 1.47411 22.1935 1 21 1H10.5ZM21 11.5C19.8065 11.5 18.6619 11.9741 17.818 12.818C16.9741 13.6619 16.5 14.8065 16.5 16C16.5 17.1935 16.9741 18.3381 17.818 19.182C18.6619 20.0259 19.8065 20.5 21 20.5C22.1935 20.5 23.3381 20.0259 24.182 19.182C25.0259 18.3381 25.5 17.1935 25.5 16C25.5 14.8065 25.0259 13.6619 24.182 12.818C23.3381 11.9741 22.1935 11.5 21 11.5ZM6 16C6 14.8065 6.47411 13.6619 7.31802 12.818C8.16193 11.9741 9.30653 11.5 10.5 11.5H15V20.5H10.5C9.30653 20.5 8.16193 20.0259 7.31802 19.182C6.47411 18.3381 6 17.1935 6 16ZM10.5 22C9.60999 22 8.73996 22.2639 7.99994 22.7584C7.25991 23.2529 6.68314 23.9557 6.34254 24.7779C6.00195 25.6002 5.91283 26.505 6.08647 27.3779C6.2601 28.2508 6.68868 29.0526 7.31802 29.682C7.94736 30.3113 8.74918 30.7399 9.62209 30.9135C10.495 31.0872 11.3998 30.9981 12.2221 30.6575C13.0443 30.3169 13.7471 29.7401 14.2416 29.0001C14.7361 28.26 15 27.39 15 26.5V22H10.5Z" fill="black"/>
</svg>
