<svg width="32" height="32" viewBox="0 0 32 32" fill="none" xmlns="http://www.w3.org/2000/svg">
<path d="M31.9052 17.5773L30.2251 12.4249C30.2251 12.3769 30.2091 12.3289 30.1931 12.2809L26.8168 1.91207C26.7221 1.64754 26.5487 1.41834 26.3198 1.25529C26.091 1.09224 25.8177 1.00315 25.5367 1C24.9607 1 24.4487 1.40003 24.2726 1.92807L21.0724 11.8008H10.9436L7.72735 1.92807C7.63822 1.66182 7.46886 1.42968 7.24253 1.26351C7.0162 1.09734 6.74399 1.00529 6.46326 1C5.87121 1 5.35917 1.40003 5.18316 1.92807L1.80689 12.3129V12.3289L0.0947589 17.5773C-0.161261 18.3774 0.11076 19.2414 0.798814 19.7215L15.552 30.4583C15.824 30.6503 16.176 30.6503 16.448 30.4423L31.2012 19.7215C31.8892 19.2414 32.1613 18.3774 31.9052 17.5773ZM9.83952 13.321L13.9518 25.9779L4.07907 13.321M18.0482 25.9939L22.0005 13.849L22.1605 13.321H27.9369L18.9922 24.7779M25.5527 2.90415L28.449 11.8008H22.6565M20.5764 13.321L17.7121 22.1376L16 27.3861L11.4236 13.321M6.44726 2.90415L9.34348 11.8008H3.56703M1.67888 18.5054C1.53487 18.3934 1.47087 18.2013 1.53487 18.0413L2.79897 14.153L12.1117 26.074M30.3211 18.5054L19.9043 26.074L19.9363 26.0259L29.201 14.153L30.4651 18.0413C30.5291 18.2013 30.4651 18.3934 30.3211 18.5054Z" fill="black"/>
</svg>
