<svg width="32" height="32" viewBox="0 0 32 32" fill="none" xmlns="http://www.w3.org/2000/svg">
<path fill-rule="evenodd" clip-rule="evenodd" d="M31 1H1V31H31V1ZM17 17C17 15.9391 17.4214 14.9217 18.1716 14.1716C18.9217 13.4214 19.9391 13 21 13H23.334C25.358 13 27 14.64 27 16.666V17H25V16.666C25 16.4472 24.9569 16.2306 24.8732 16.0284C24.7895 15.8263 24.6667 15.6427 24.512 15.488C24.3573 15.3333 24.1737 15.2105 23.9715 15.1268C23.7694 15.0431 23.5528 15 23.334 15H21C20.4696 15 19.9609 15.2107 19.5858 15.5858C19.2107 15.9609 19 16.4696 19 17C19 17.5304 19.2107 18.0391 19.5858 18.4142C19.9609 18.7893 20.4696 19 21 19H23C24.0609 19 25.0783 19.4214 25.8284 20.1716C26.5786 20.9217 27 21.9391 27 23C27 24.0609 26.5786 25.0783 25.8284 25.8284C25.0783 26.5786 24.0609 27 23 27H21C19.9391 27 18.9217 26.5786 18.1716 25.8284C17.4214 25.0783 17 24.0609 17 23H19C19 23.5304 19.2107 24.0391 19.5858 24.4142C19.9609 24.7893 20.4696 25 21 25H23C23.5304 25 24.0391 24.7893 24.4142 24.4142C24.7893 24.0391 25 23.5304 25 23C25 22.4696 24.7893 21.9609 24.4142 21.5858C24.0391 21.2107 23.5304 21 23 21H21C19.9391 21 18.9217 20.5786 18.1716 19.8284C17.4214 19.0783 17 18.0609 17 17ZM13 13V23C13 23.5304 12.7893 24.0391 12.4142 24.4142C12.0391 24.7893 11.5304 25 11 25C10.4696 25 9.96086 24.7893 9.58579 24.4142C9.21071 24.0391 9 23.5304 9 23H7C7 24.0609 7.42143 25.0783 8.17157 25.8284C8.92172 26.5786 9.93913 27 11 27C12.0609 27 13.0783 26.5786 13.8284 25.8284C14.5786 25.0783 15 24.0609 15 23V13H13Z" fill="black"/>
</svg>
