<svg width="32" height="32" viewBox="0 0 32 32" fill="none" xmlns="http://www.w3.org/2000/svg">
<path d="M25.7158 9.8623C25.9111 10.2822 26.1016 10.7021 26.2871 11.1221C26.4727 11.542 26.7021 11.9424 26.9756 12.3232C26.917 12.46 26.8242 12.582 26.6973 12.6895C26.5703 12.7969 26.4189 12.8848 26.2432 12.9531C26.0674 13.0215 25.9014 13.0801 25.7451 13.1289C25.5889 13.1777 25.4326 13.2021 25.2764 13.2021C25.0225 13.2021 24.8223 13.1338 24.6758 12.9971C24.5293 12.8604 24.4512 12.6553 24.4414 12.3818C24.5684 12.3232 24.71 12.2891 24.8662 12.2793C25.0225 12.2695 25.1787 12.2598 25.335 12.25C25.4912 12.2402 25.6426 12.2256 25.7891 12.2061C25.9355 12.1865 26.0674 12.1426 26.1846 12.0742C26.1162 11.8984 26.0527 11.7324 25.9941 11.5762C25.9355 11.4199 25.877 11.2588 25.8184 11.0928C25.7598 10.9268 25.7158 10.7656 25.6865 10.6094C25.6572 10.4531 25.6377 10.2725 25.6279 10.0674V9.8623H25.7158ZM6.02832 14.916C6.06738 14.6328 6.16504 14.3887 6.32129 14.1836C6.47754 13.9785 6.71191 13.8711 7.02441 13.8613C7.25879 13.8613 7.46875 13.915 7.6543 14.0225C7.83984 14.1299 7.99609 14.2666 8.12305 14.4326C8.25 14.5986 8.35254 14.7939 8.43066 15.0186C8.50879 15.2432 8.54785 15.4531 8.54785 15.6484C8.54785 15.8145 8.5332 15.9707 8.50391 16.1172C8.40625 16.0586 8.32324 15.9609 8.25488 15.8242C8.18652 15.6875 8.11816 15.5459 8.0498 15.3994C7.98145 15.2529 7.9082 15.126 7.83008 15.0186C7.75195 14.9111 7.65918 14.8574 7.55176 14.8574C7.41504 14.8574 7.3125 14.8965 7.24414 14.9746C7.17578 15.0527 7.12207 15.1602 7.08301 15.2969C7.04395 15.4336 7.01953 15.5654 7.00977 15.6924C7 15.8193 6.99512 15.9512 6.99512 16.0879V16.9521C6.8291 16.7959 6.72168 16.5859 6.67285 16.3223C6.62402 16.0586 6.59473 15.8193 6.58496 15.6045C6.58496 15.4287 6.59961 15.2529 6.62891 15.0771C6.6582 14.9014 6.71191 14.7354 6.79004 14.5791C6.73145 14.5498 6.66797 14.5352 6.59961 14.5352C6.46289 14.5352 6.36035 14.5791 6.29199 14.667C6.22363 14.7549 6.13574 14.8379 6.02832 14.916ZM25.7305 22.2988C25.7305 22.416 25.8086 22.5625 25.9648 22.7383C26.1211 22.9141 26.3262 23.1045 26.5801 23.3096C26.834 23.5146 27.0977 23.7393 27.3711 23.9834C27.6445 24.2275 27.918 24.4619 28.1914 24.6865C28.4648 24.9111 28.6846 25.1406 28.8506 25.375C29.0166 25.6094 29.1289 25.8145 29.1875 25.9902C29.1973 26.0391 29.2021 26.1074 29.2021 26.1953C29.2021 26.3223 29.1777 26.5078 29.1289 26.752C29.0801 26.9961 29.0117 27.2695 28.9238 27.5723C28.8359 27.875 28.7432 28.1924 28.6455 28.5244C28.5479 28.8564 28.4453 29.1836 28.3379 29.5059C28.2305 29.8281 28.1377 30.1162 28.0596 30.3701C27.9814 30.624 27.9131 30.834 27.8545 31H2.9668C2.88867 30.7949 2.7959 30.5508 2.68848 30.2676C2.58105 29.9844 2.47852 29.6963 2.38086 29.4033C2.2832 29.1104 2.19531 28.8223 2.11719 28.5391C2.03906 28.2559 2 28.0117 2 27.8066C2 27.5625 2.05859 27.3672 2.17578 27.2207C2.29297 27.0742 2.43945 26.9424 2.61523 26.8252C2.79102 26.708 2.97656 26.6055 3.17188 26.5176C3.36719 26.4297 3.55273 26.332 3.72852 26.2246C4.26563 25.8535 4.80762 25.5068 5.35449 25.1846C5.90137 24.8623 6.45312 24.5352 7.00977 24.2031C7.09766 24.1543 7.21973 24.0859 7.37598 23.998C7.53223 23.9102 7.69824 23.8174 7.87402 23.7197C8.0498 23.6221 8.20605 23.5195 8.34277 23.4121C8.47949 23.3047 8.57227 23.2217 8.62109 23.1631C8.66016 23.0947 8.67969 23.0117 8.67969 22.9141C8.67969 22.7969 8.65527 22.6797 8.60645 22.5625C8.55762 22.4453 8.49902 22.3281 8.43066 22.2109C8.3623 22.0938 8.28418 21.9814 8.19629 21.874C8.1084 21.7666 8.04492 21.6543 8.00586 21.5371C7.86914 21.2539 7.76172 20.9658 7.68359 20.6729C7.60547 20.3799 7.55176 20.0723 7.52246 19.75C6.96582 19.6621 6.4873 19.4619 6.08691 19.1494C5.68652 18.8369 5.34473 18.4561 5.06152 18.0068C4.77832 17.5576 4.57812 17.0742 4.46094 16.5566C4.34375 16.0391 4.27539 15.5215 4.25586 15.0039C4.25586 14.75 4.28027 14.4668 4.3291 14.1543C4.37793 13.8418 4.45605 13.5732 4.56348 13.3486C4.60254 13.2803 4.6416 13.2217 4.68066 13.1729C4.71973 13.124 4.76367 13.0703 4.8125 13.0117C4.86133 12.9531 4.89062 12.8945 4.90039 12.8359C4.91016 12.7773 4.9248 12.6943 4.94434 12.5869C4.94434 12.3525 4.91504 12.1084 4.85645 11.8545C4.79785 11.6006 4.76367 11.3174 4.75391 11.0049C4.75391 10.6436 4.77344 10.2578 4.8125 9.84766C4.85156 9.4375 4.93945 9.03711 5.07617 8.64648C5.21289 8.25586 5.39355 7.90918 5.61816 7.60645C5.84277 7.30371 6.15039 7.06445 6.54102 6.88867C6.6875 6.32227 6.92188 5.83398 7.24414 5.42383C7.56641 5.01367 7.9375 4.64746 8.35742 4.3252C8.77734 4.00293 9.23145 3.71484 9.71973 3.46094C10.208 3.20703 10.6816 2.94336 11.1406 2.66992C12.0977 2.12305 13.1328 1.70801 14.2461 1.4248C15.3594 1.1416 16.4678 1 17.5713 1C18.0693 1 18.582 1.0293 19.1094 1.08789C19.6367 1.14648 20.1543 1.23926 20.6621 1.36621C21.1699 1.49316 21.668 1.65918 22.1562 1.86426C22.6445 2.06934 23.0938 2.32812 23.5039 2.64062C23.7773 2.8457 24.0752 3.09473 24.3975 3.3877C24.7197 3.68066 25.0371 3.99316 25.3496 4.3252C25.6621 4.65723 25.9502 4.99902 26.2139 5.35059C26.4775 5.70215 26.6826 6.02441 26.8291 6.31738C27.0537 6.77637 27.2393 7.26465 27.3857 7.78223C27.5322 8.2998 27.6543 8.83203 27.752 9.37891C27.8496 9.92578 27.918 10.4678 27.957 11.0049C27.9961 11.542 28.0156 12.0693 28.0156 12.5869C28.0156 13.1826 27.9863 13.8369 27.9277 14.5498C27.8691 15.2627 27.7812 15.9805 27.6641 16.7031C27.5469 17.4258 27.3906 18.1289 27.1953 18.8125C27 19.4961 26.7754 20.1113 26.5215 20.6582C26.4727 20.7656 26.4043 20.8877 26.3164 21.0244C26.2285 21.1611 26.1406 21.3076 26.0527 21.4639C25.9648 21.6201 25.8916 21.7715 25.833 21.918C25.7744 22.0645 25.7402 22.1914 25.7305 22.2988ZM19.417 28.7734V28.4658C19.417 28.3682 19.4219 28.2607 19.4316 28.1436C19.2168 28.0361 18.9971 27.958 18.7725 27.9092C18.5479 27.8604 18.3086 27.8213 18.0547 27.792C18.2598 27.6943 18.4746 27.6309 18.6992 27.6016C18.9238 27.5723 19.1387 27.499 19.3438 27.3818V27.1328C19.1973 27.123 19.0703 27.0986 18.9629 27.0596C18.8555 27.0205 18.7578 26.9766 18.6699 26.9277C18.582 26.8789 18.4893 26.8252 18.3916 26.7666C18.2939 26.708 18.1865 26.6445 18.0693 26.5762C17.9229 26.498 17.7275 26.4053 17.4834 26.2979C17.2393 26.1904 16.9805 26.083 16.707 25.9756C16.4336 25.8682 16.1699 25.7803 15.916 25.7119C15.6621 25.6436 15.457 25.6094 15.3008 25.6094C15.1055 25.6094 14.959 25.6729 14.8613 25.7998C14.7637 25.9268 14.6855 26.0781 14.627 26.2539C14.5684 26.4297 14.5342 26.6201 14.5244 26.8252C14.5146 27.0303 14.5098 27.1914 14.5098 27.3086V27.7188C14.5098 27.8555 14.5195 27.9922 14.5391 28.1289C14.5586 28.5195 14.6367 28.8857 14.7734 29.2275C14.9102 29.5693 15.042 29.9258 15.1689 30.2969C15.208 30.4043 15.2422 30.5117 15.2715 30.6191C15.3008 30.7266 15.374 30.8096 15.4912 30.8682C15.5107 30.8779 15.5449 30.8828 15.5938 30.8828C15.7012 30.8828 15.8379 30.8633 16.0039 30.8242C16.1699 30.7852 16.3457 30.7314 16.5312 30.6631C16.7168 30.5947 16.8926 30.5264 17.0586 30.458C17.2246 30.3896 17.3564 30.3262 17.4541 30.2676C17.8252 30.0723 18.1572 29.833 18.4502 29.5498C18.7432 29.2666 19.0654 29.0078 19.417 28.7734ZM18.4355 25.7412C18.7285 25.9756 19.0117 26.1416 19.2852 26.2393C19.5586 26.3369 19.8906 26.3857 20.2812 26.3857H20.4863C20.5547 26.3857 20.623 26.3809 20.6914 26.3711C20.916 26.2051 21.1309 26.0342 21.3359 25.8584C21.541 25.6826 21.7607 25.5215 21.9951 25.375C21.7705 25.3945 21.5508 25.4287 21.3359 25.4775C21.1211 25.5264 20.9063 25.5752 20.6914 25.624C20.4766 25.6729 20.2617 25.7217 20.0469 25.7705C19.832 25.8193 19.6123 25.8389 19.3877 25.8291C19.2412 25.8291 19.0947 25.8193 18.9482 25.7998C18.8018 25.7803 18.6602 25.7314 18.5234 25.6533L18.4355 25.7412ZM19.9736 28.334C20.0811 28.373 20.2031 28.3926 20.3398 28.3926C20.5645 28.3926 20.7354 28.3242 20.8525 28.1875C20.9697 28.0508 21.0332 27.875 21.043 27.6602C21.043 27.4746 20.9893 27.3086 20.8818 27.1621C20.7744 27.0156 20.6182 26.9375 20.4131 26.9277C20.3057 26.9277 20.2031 26.9473 20.1055 26.9863C20.0078 27.0254 19.9102 27.0791 19.8125 27.1475V27.2354C19.8125 27.2646 19.8076 27.2988 19.7979 27.3379C19.7979 27.5039 19.8174 27.6699 19.8564 27.8359C19.8955 28.002 19.9346 28.168 19.9736 28.334ZM24.6318 28.9346C24.7393 28.7881 24.8076 28.6123 24.8369 28.4072C24.8662 28.2021 24.8857 28.0068 24.8955 27.8213C24.8955 27.6943 24.8857 27.5088 24.8662 27.2646C24.8467 27.0205 24.8174 26.7764 24.7783 26.5322C24.7393 26.2881 24.6807 26.0586 24.6025 25.8438C24.5244 25.6289 24.4268 25.4873 24.3096 25.4189C24.2021 25.3506 24.0752 25.3164 23.9287 25.3164C23.6846 25.3164 23.4551 25.3701 23.2402 25.4775C23.0254 25.585 22.8154 25.707 22.6104 25.8438C22.4053 25.9805 22.2051 26.127 22.0098 26.2832C21.8145 26.4395 21.6094 26.5518 21.3945 26.6201C21.4336 26.7275 21.4727 26.8252 21.5117 26.9131C21.5508 27.001 21.5752 27.1035 21.585 27.2207C21.7021 27.1914 21.8242 27.1768 21.9512 27.1768C22.2148 27.1768 22.4688 27.2305 22.7129 27.3379C22.5566 27.3574 22.3809 27.3721 22.1855 27.3818C21.9902 27.3916 21.8291 27.4502 21.7021 27.5576C21.6729 27.6455 21.6582 27.7432 21.6582 27.8506V28.0703C21.6582 28.1387 21.6631 28.2168 21.6729 28.3047C21.6729 28.4023 21.668 28.4756 21.6582 28.5244C22.1465 28.6611 22.6396 28.7588 23.1377 28.8174C23.6357 28.876 24.1338 28.915 24.6318 28.9346ZM19.1094 24.9648C19.4805 24.9648 19.8613 24.9258 20.252 24.8477C20.6426 24.7695 21.0381 24.6523 21.4385 24.4961C21.8389 24.3398 22.21 24.1738 22.5518 23.998C22.8936 23.8223 23.2256 23.6123 23.5479 23.3682C23.8604 23.1436 24.1289 22.8652 24.3535 22.5332C24.5781 22.2012 24.7979 21.8789 25.0127 21.5664C25.4229 20.9609 25.7744 20.3213 26.0674 19.6475C26.3604 18.9736 26.5996 18.2803 26.7852 17.5674C26.9707 16.8545 27.1074 16.127 27.1953 15.3848C27.2832 14.6426 27.3271 13.9102 27.3271 13.1875C27.3271 12.8945 27.3223 12.543 27.3125 12.1328C27.3027 11.7227 27.2832 11.2979 27.2539 10.8584C27.2246 10.4189 27.166 10.0039 27.0781 9.61328C26.9902 9.22266 26.8877 8.89551 26.7705 8.63184C26.6826 8.44629 26.5605 8.27539 26.4043 8.11914C26.248 7.96289 26.0771 7.82129 25.8916 7.69434C25.7061 7.56738 25.501 7.46973 25.2764 7.40137C25.0518 7.33301 24.8418 7.29883 24.6465 7.29883C24.2852 7.29883 23.9678 7.4209 23.6943 7.66504C23.6846 7.62598 23.6797 7.5918 23.6797 7.5625C23.6797 7.5332 23.6748 7.48926 23.665 7.43066C23.665 7.25488 23.7041 7.10352 23.7822 6.97656C23.8604 6.84961 23.9629 6.7373 24.0898 6.63965C24.2168 6.54199 24.3584 6.47852 24.5146 6.44922C24.6709 6.41992 24.8271 6.39551 24.9834 6.37598C25.0908 6.37598 25.1982 6.38574 25.3057 6.40527C25.4131 6.4248 25.5205 6.44922 25.6279 6.47852C25.4229 6.21484 25.2178 5.94141 25.0127 5.6582C24.8076 5.375 24.5928 5.10156 24.3682 4.83789C24.1436 4.57422 23.8994 4.33008 23.6357 4.10547C23.3721 3.88086 23.0938 3.68066 22.8008 3.50488C22.4297 3.2998 22.0293 3.10938 21.5996 2.93359C21.1699 2.75781 20.7305 2.60645 20.2812 2.47949C19.832 2.35254 19.373 2.25488 18.9043 2.18652C18.4355 2.11816 17.9961 2.08398 17.5859 2.08398C17.1758 2.08398 16.7705 2.11816 16.3701 2.18652C15.9697 2.25488 15.5791 2.38672 15.1982 2.58203C14.7686 2.79688 14.3096 3.0459 13.8213 3.3291C13.333 3.6123 12.8643 3.9248 12.415 4.2666C11.9658 4.6084 11.5508 4.98926 11.1699 5.40918C10.7891 5.8291 10.501 6.25879 10.3057 6.69824C10.4912 7.1377 10.584 7.61133 10.584 8.11914C10.584 8.44141 10.5547 8.75879 10.4961 9.07129C10.4375 9.38379 10.374 9.69629 10.3057 10.0088C10.2373 10.3213 10.1738 10.6387 10.1152 10.9609C10.0566 11.2832 10.0273 11.6006 10.0273 11.9131C10.0273 12.1475 10.0469 12.377 10.0859 12.6016C10.125 12.8262 10.1787 13.0508 10.2471 13.2754C10.3154 13.5 10.3691 13.7246 10.4082 13.9492C10.4473 14.1738 10.4814 14.4033 10.5107 14.6377C10.4424 14.7354 10.3545 14.8135 10.2471 14.8721C10.1396 14.9307 10.0225 14.9746 9.89551 15.0039C9.76855 15.0332 9.6416 15.0527 9.51465 15.0625C9.3877 15.0723 9.27051 15.0771 9.16309 15.0771H8.92871C8.87988 14.8428 8.82129 14.6035 8.75293 14.3594C8.68457 14.1152 8.58691 13.8955 8.45996 13.7002C8.33301 13.5049 8.17676 13.3438 7.99121 13.2168C7.80566 13.0898 7.56152 13.0264 7.25879 13.0264C6.96582 13.0264 6.6875 13.085 6.42383 13.2021C6.16016 13.3193 5.93555 13.4854 5.75 13.7002C5.56445 13.915 5.41309 14.1494 5.2959 14.4033C5.17871 14.6572 5.12012 14.9355 5.12012 15.2383C5.12012 15.5605 5.17871 15.917 5.2959 16.3076C5.41309 16.6982 5.5791 17.0596 5.79395 17.3916C6.00879 17.7236 6.26758 18.0068 6.57031 18.2412C6.87305 18.4756 7.21484 18.5879 7.5957 18.5781C7.75195 18.5781 7.88867 18.5439 8.00586 18.4756C8.12305 18.4072 8.24512 18.334 8.37207 18.2559C8.49902 18.1777 8.61621 18.1045 8.72363 18.0361C8.83105 17.9678 8.97266 17.9287 9.14844 17.9189L9.20703 18.0654C9.22656 18.1143 9.23633 18.1729 9.23633 18.2412C9.23633 18.3584 9.19727 18.4658 9.11914 18.5635C9.04102 18.6611 8.95801 18.7588 8.87012 18.8564C8.78223 18.9541 8.69922 19.0371 8.62109 19.1055C8.54297 19.1738 8.50391 19.2617 8.50391 19.3691C8.50391 19.5059 8.51367 19.6426 8.5332 19.7793C8.55273 19.916 8.58203 20.0576 8.62109 20.2041V20.2334C8.62109 20.2432 8.62598 20.2529 8.63574 20.2627C8.69434 20.5166 8.77734 20.8047 8.88477 21.127C8.99219 21.4492 9.11426 21.7812 9.25098 22.123C9.3877 22.4648 9.53906 22.7871 9.70508 23.0898C9.87109 23.3926 10.0322 23.6514 10.1885 23.8662C10.4033 24.1689 10.6719 24.4082 10.9941 24.584C11.3164 24.7598 11.6582 24.8965 12.0195 24.9941C12.3809 25.0918 12.7568 25.1602 13.1475 25.1992C13.5381 25.2383 13.8994 25.2676 14.2314 25.2871C14.3389 25.0625 14.5098 24.916 14.7441 24.8477C14.9785 24.7793 15.2129 24.7451 15.4473 24.7451C15.7402 24.7451 16.043 24.7842 16.3555 24.8623C15.9063 24.6768 15.4863 24.4033 15.0957 24.042C14.7051 23.6807 14.3486 23.3193 14.0264 22.958C13.8506 22.7627 13.6699 22.5576 13.4844 22.3428C13.2988 22.1279 13.1328 21.9033 12.9863 21.6689C12.8398 21.4346 12.7129 21.1904 12.6055 20.9365C12.498 20.6826 12.4443 20.4092 12.4443 20.1162C12.8252 20.6436 13.1914 21.1367 13.543 21.5957C13.8945 22.0547 14.2754 22.4844 14.6855 22.8848C15.0957 23.2852 15.54 23.6416 16.0186 23.9541C16.4971 24.2666 17.0635 24.5303 17.7178 24.7451C18.1572 24.8916 18.6211 24.9648 19.1094 24.9648ZM22.9473 20.2188C22.9375 20.1016 22.9326 19.9844 22.9326 19.8672C22.9326 19.75 22.9277 19.6279 22.918 19.501V19.2812C22.918 19.2129 22.9277 19.1445 22.9473 19.0762C23.2695 19.0469 23.5625 18.9883 23.8262 18.9004C24.0898 18.8125 24.3486 18.71 24.6025 18.5928C24.8564 18.4756 25.1006 18.3486 25.335 18.2119C25.5693 18.0752 25.833 17.9434 26.126 17.8164C25.9502 18.1484 25.7646 18.4561 25.5693 18.7393C25.374 19.0225 25.1445 19.2764 24.8809 19.501C24.6172 19.7256 24.334 19.8965 24.0312 20.0137C23.7285 20.1309 23.3672 20.1992 22.9473 20.2188ZM20.5303 18.4756C20.3838 18.3486 20.2764 18.1924 20.208 18.0068C20.1396 17.8213 20.1006 17.6309 20.0908 17.4355C20.0908 17.1426 20.1738 16.8838 20.3398 16.6592C20.4277 16.8057 20.4814 16.9521 20.501 17.0986C20.5205 17.2451 20.5547 17.3818 20.6035 17.5088C20.6523 17.6357 20.7256 17.7285 20.8232 17.7871C20.9209 17.8457 21.1113 17.8848 21.3945 17.9043C21.668 17.9043 21.9365 17.8652 22.2002 17.7871C22.4639 17.709 22.7178 17.6162 22.9619 17.5088C23.2061 17.4014 23.4551 17.2842 23.709 17.1572C23.9629 17.0303 24.2168 16.918 24.4707 16.8203C24.5293 16.7227 24.5781 16.6201 24.6172 16.5127C24.6563 16.4053 24.6758 16.293 24.6758 16.1758C24.6758 16.0293 24.6025 15.8535 24.4561 15.6484C24.3096 15.4434 24.1289 15.209 23.9141 14.9453C23.6992 14.6816 23.46 14.3936 23.1963 14.0811C22.9326 13.7686 22.6982 13.4365 22.4932 13.085C22.2881 12.7334 22.1025 12.3574 21.9365 11.957C21.7705 11.5566 21.6973 11.1465 21.7168 10.7266V10.6387C21.7168 10.6289 21.7217 10.624 21.7314 10.624C21.79 10.585 21.8389 10.5654 21.8779 10.5654C21.9365 10.5654 21.9854 10.5898 22.0244 10.6387C22.0635 10.6875 22.0928 10.751 22.1123 10.8291C22.1318 10.9072 22.1465 10.9756 22.1562 11.0342C22.166 11.0928 22.1807 11.1514 22.2002 11.21C22.3076 11.4736 22.4687 11.7764 22.6836 12.1182C22.8984 12.46 23.1426 12.8066 23.416 13.1582C23.6895 13.5098 23.9531 13.8418 24.207 14.1543C24.4609 14.4668 24.7002 14.7305 24.9248 14.9453C24.9639 14.9844 25.0176 15.0283 25.0859 15.0771C25.1543 15.126 25.2227 15.1846 25.291 15.2529C25.3594 15.3213 25.418 15.3799 25.4668 15.4287C25.5156 15.4775 25.5547 15.5312 25.584 15.5898C25.5938 15.6289 25.5986 15.6875 25.5986 15.7656C25.5986 15.9707 25.5547 16.166 25.4668 16.3516C25.3789 16.5371 25.3301 16.7275 25.3203 16.9229V16.9814C24.9883 17.1963 24.6611 17.3965 24.3389 17.582C24.0166 17.7676 23.6895 17.9287 23.3574 18.0654C23.0254 18.2021 22.6787 18.3096 22.3174 18.3877C21.9561 18.4658 21.5703 18.5049 21.1602 18.5049H20.8525C20.7549 18.5049 20.6475 18.4951 20.5303 18.4756ZM19.4756 12.6895C19.4756 12.8848 19.4268 13.0459 19.3291 13.1729C19.2314 13.2998 19.0996 13.4072 18.9336 13.4951C18.7676 13.583 18.6016 13.6367 18.4355 13.6562C18.2695 13.6758 18.0986 13.6904 17.9229 13.7002C17.8154 13.7002 17.6787 13.6953 17.5127 13.6855C17.3467 13.6758 17.1855 13.6416 17.0293 13.583C16.873 13.5244 16.7363 13.4512 16.6191 13.3633C16.502 13.2754 16.4434 13.1533 16.4434 12.9971C16.4434 12.8701 16.4873 12.7383 16.5752 12.6016C16.8193 12.6113 17.0586 12.6455 17.293 12.7041C17.5273 12.7627 17.7715 12.792 18.0254 12.792C18.1621 12.792 18.2891 12.7773 18.4062 12.748C18.5234 12.7188 18.6357 12.6504 18.7432 12.543C18.6455 12.3867 18.543 12.2158 18.4355 12.0303C18.3281 11.8447 18.2305 11.6494 18.1426 11.4443C18.0547 11.2393 17.9766 11.0342 17.9082 10.8291C17.8398 10.624 17.8105 10.4287 17.8203 10.2432C17.8203 10.1064 17.8398 9.98438 17.8789 9.87695C17.9668 10.043 18.0449 10.2139 18.1133 10.3896C18.1816 10.5654 18.2549 10.7363 18.333 10.9023C18.4111 11.0684 18.4941 11.2295 18.582 11.3857C18.6699 11.542 18.7871 11.6934 18.9336 11.8398C19.0703 11.9668 19.1924 12.0889 19.2998 12.2061C19.4072 12.3232 19.4658 12.4844 19.4756 12.6895ZM17.5713 19.6328C17.7275 20.0332 17.957 20.3457 18.2598 20.5703C18.5625 20.7949 18.9043 20.9609 19.2852 21.0684C19.666 21.1758 20.0566 21.2441 20.457 21.2734C20.8574 21.3027 21.2432 21.3174 21.6143 21.3174H22.4053C22.6689 21.3174 22.9375 21.3076 23.2109 21.2881C23.1133 21.5127 22.9668 21.6885 22.7715 21.8154C22.5762 21.9424 22.3564 22.0352 22.1123 22.0938C21.8682 22.1523 21.6191 22.1914 21.3652 22.2109C21.1113 22.2305 20.8721 22.2402 20.6475 22.2402C20.3643 22.2402 20.0762 22.2207 19.7832 22.1816C19.4902 22.1426 19.2168 22.0547 18.9629 21.918C18.7969 21.8301 18.6553 21.7275 18.5381 21.6104C18.4209 21.4932 18.3086 21.3662 18.2012 21.2295C18.0937 21.0928 17.9912 20.9561 17.8936 20.8193C17.7959 20.6826 17.6934 20.541 17.5859 20.3945C17.5566 20.3555 17.5176 20.3115 17.4688 20.2627C17.4199 20.2139 17.3662 20.165 17.3076 20.1162C17.249 20.0674 17.2002 20.0137 17.1611 19.9551C17.1221 19.8965 17.1025 19.8477 17.1025 19.8086C17.1025 19.7695 17.1221 19.7402 17.1611 19.7207C17.2002 19.7012 17.2441 19.6816 17.293 19.6621C17.3418 19.6426 17.3955 19.6328 17.4541 19.6328C17.5127 19.6328 17.5518 19.6328 17.5713 19.6328ZM16.0625 6.77148C16.1602 6.77148 16.2676 6.78613 16.3848 6.81543C16.502 6.84473 16.6143 6.89355 16.7217 6.96191C16.8291 7.03027 16.9121 7.10352 16.9707 7.18164C17.0293 7.25977 17.0635 7.36719 17.0732 7.50391C17.0732 7.61133 17.0391 7.72363 16.9707 7.84082C16.7363 7.78223 16.4971 7.75293 16.2529 7.75293C15.9307 7.75293 15.6475 7.80664 15.4033 7.91406C15.1592 8.02148 14.9346 8.17285 14.7295 8.36816C14.5244 8.56348 14.3438 8.77832 14.1875 9.0127C14.0312 9.24707 13.8945 9.50098 13.7773 9.77441C13.6602 9.74512 13.582 9.69141 13.543 9.61328C13.5039 9.53516 13.4795 9.4375 13.4697 9.32031C13.4697 9.02734 13.5527 8.73438 13.7188 8.44141C13.8848 8.14844 14.0947 7.875 14.3486 7.62109C14.6025 7.36719 14.8809 7.16211 15.1836 7.00586C15.4863 6.84961 15.7793 6.77148 16.0625 6.77148ZM17.791 18.5488C18.0449 18.6855 18.3379 18.793 18.6699 18.8711C19.002 18.9492 19.3486 19.0078 19.71 19.0469C20.0713 19.0859 20.4277 19.1152 20.7793 19.1348C21.1309 19.1543 21.4482 19.1641 21.7314 19.1641H22.0977C22.2148 19.1641 22.332 19.1592 22.4492 19.1494C22.4785 19.2861 22.498 19.4229 22.5078 19.5596C22.5176 19.6963 22.5225 19.8428 22.5225 19.999V20.292H22.3027C22.2344 20.292 22.1562 20.2969 22.0684 20.3066C21.7363 20.3066 21.3555 20.2822 20.9258 20.2334C20.4961 20.1846 20.0664 20.0967 19.6367 19.9697C19.207 19.8428 18.8262 19.667 18.4941 19.4424C18.1621 19.2178 17.9277 18.9199 17.791 18.5488Z" fill="black"/>
</svg>
