<svg width="32" height="32" viewBox="0 0 32 32" fill="none" xmlns="http://www.w3.org/2000/svg">
<path d="M18.8377 18.2484H18.503C18.2411 18.4134 18.1247 18.7285 18.2411 18.9985L19.4926 22.1639C20.7005 21.3688 21.6173 20.1836 22.0975 18.7885L18.8523 18.2484H18.8377ZM13.8171 18.6835C13.7797 18.561 13.7065 18.4535 13.6075 18.3756C13.5085 18.2977 13.3886 18.2533 13.2641 18.2484H13.1477L9.91705 18.8035C10.3973 20.1836 11.3141 21.3538 12.5219 22.1489L13.7589 19.0435V18.9985C13.8171 18.9235 13.8171 18.7885 13.8171 18.6835ZM16.4802 19.8986C16.4096 19.7685 16.2924 19.6721 16.1537 19.63C16.0149 19.588 15.8657 19.6036 15.7381 19.6736C15.6362 19.7486 15.5634 19.7936 15.5198 19.8986H15.5052L13.919 22.854C15.0541 23.244 16.2765 23.319 17.4553 23.034C17.659 22.989 17.8773 22.929 18.081 22.854L16.4948 19.8986H16.4802ZM21.5008 13.0428L19.056 15.248L19.0706 15.293C19.0151 15.3406 18.9695 15.3992 18.9365 15.4653C18.9034 15.5314 18.8836 15.6037 18.8781 15.6779C18.8727 15.752 18.8818 15.8266 18.9049 15.8971C18.9279 15.9675 18.9645 16.0325 19.0124 16.0881C19.0851 16.1781 19.1724 16.2382 19.2743 16.2682L19.2889 16.2832L22.4468 17.2133C22.5486 15.7581 22.243 14.2879 21.5008 13.0428ZM16.975 13.2828C16.9896 13.5978 17.237 13.8379 17.5426 13.8229C17.659 13.8229 17.7609 13.7928 17.8482 13.7478H17.8627L20.5258 11.7826C19.511 10.7561 18.1968 10.1024 16.7858 9.92236L16.975 13.2828ZM14.1518 13.7478C14.3992 13.9129 14.7339 13.8679 14.9086 13.6128C14.9813 13.5228 15.0104 13.4178 15.025 13.2978H15.0395L15.2142 9.92236C14.9959 9.95237 14.7776 9.99737 14.5447 10.0424C13.3805 10.3124 12.3037 10.9125 11.4596 11.7826L14.1373 13.7478H14.1518ZM12.7111 16.2832C13.0022 16.2081 13.1768 15.8931 13.0895 15.5931C13.0895 15.4731 13.0167 15.383 12.9294 15.308V15.293L10.4846 12.9977C9.72787 14.2879 9.40771 15.7581 9.56779 17.2283L12.7111 16.2982V16.2832ZM15.0977 17.2733L16 17.7233L16.9023 17.2733L17.1205 16.2682L16.4948 15.4731H15.4907L14.8649 16.2682L15.0977 17.2733ZM30.9454 19.2535L28.3696 7.74709C28.2387 7.11701 27.8312 6.60695 27.2928 6.33692L16.8586 1.19127C16.3202 0.936242 15.6798 0.936242 15.1268 1.19127L4.70725 6.33692C4.16881 6.60695 3.76134 7.11701 3.63037 7.74709L1.05457 19.2535C0.981809 19.5536 0.981809 19.8536 1.05457 20.1386C1.06912 20.2287 1.09823 20.3187 1.12733 20.4087C1.17099 20.5437 1.24375 20.6937 1.31652 20.8137C1.36017 20.8737 1.38928 20.9337 1.44749 20.9787L8.65098 30.2499C8.68009 30.2499 8.72375 30.3099 8.72375 30.3399C8.86927 30.4749 9.00024 30.5799 9.13122 30.67C9.30585 30.79 9.50958 30.88 9.71332 30.925C9.87339 31 10.048 31 10.179 31H21.9956C22.0975 31 22.1994 30.955 22.2867 30.925C22.3594 30.91 22.4322 30.88 22.4904 30.865C22.5486 30.835 22.5923 30.82 22.6505 30.79C22.7233 30.76 22.796 30.715 22.8688 30.67C23.0434 30.5499 23.2035 30.3999 23.349 30.2499L23.5673 29.9499L30.5525 20.9787C30.698 20.7987 30.7999 20.6037 30.8727 20.4087C30.9018 20.3187 30.9309 20.2287 30.9454 20.1386C31.0182 19.8536 31.0182 19.5386 30.9454 19.2535ZM20.1329 23.7391C20.162 23.8291 20.1911 23.9191 20.2348 23.9941C20.1766 24.1141 20.1475 24.2492 20.1911 24.3842C20.3658 24.7442 20.5258 25.0743 20.7441 25.4043C20.8605 25.5693 20.977 25.7493 21.0934 25.9144C21.0934 25.9594 21.137 26.0344 21.1516 26.0944C21.3262 26.3944 21.2389 26.7845 20.9333 26.9795C20.6277 27.1745 20.2493 27.0545 20.0747 26.7545C20.0602 26.7095 20.0456 26.6795 20.031 26.6345C20.0019 26.5894 19.9728 26.4994 19.9437 26.4994C19.871 26.2744 19.8128 26.0794 19.7691 25.8844C19.6381 25.5093 19.5217 25.1493 19.3325 24.8042C19.2568 24.7004 19.149 24.6263 19.0269 24.5942L18.9105 24.3542C17.0332 25.0743 14.9813 25.0743 13.1332 24.3392L12.9876 24.6092C12.8858 24.6242 12.7839 24.6692 12.7111 24.7442C12.5074 25.1043 12.3619 25.4793 12.2309 25.8994C12.1872 26.0944 12.129 26.2894 12.0563 26.4994C12.0272 26.4994 11.9981 26.6045 11.969 26.6495C11.913 26.8106 11.7972 26.9422 11.6471 27.0154C11.497 27.0885 11.3249 27.0972 11.1686 27.0395C11.0123 26.9818 10.8846 26.8625 10.8136 26.7077C10.7427 26.553 10.7342 26.3755 10.7902 26.2144C10.8048 26.1694 10.8339 26.1394 10.8484 26.0944C10.9066 26.0494 10.9066 25.9744 10.9066 25.9294C11.0376 25.7493 11.1395 25.5843 11.2559 25.4043C11.4887 25.0893 11.6779 24.7292 11.8234 24.3692C11.8377 24.2424 11.8228 24.1138 11.7798 23.9941L11.8816 23.7241C10.1763 22.6811 8.89838 21.033 8.28717 19.0885L7.99612 19.1335C7.90116 19.0532 7.784 19.006 7.66141 18.9985C7.26849 19.0735 6.91923 19.1935 6.54087 19.3285C6.38079 19.4186 6.19161 19.4936 6.00243 19.5536C5.95877 19.5686 5.90056 19.5836 5.81324 19.5986C5.65685 19.6471 5.48838 19.6322 5.3423 19.5569C5.19622 19.4816 5.08358 19.3516 5.02741 19.1935C4.92554 18.8485 5.08562 18.4884 5.43488 18.3684C5.46398 18.3684 5.50764 18.3534 5.5513 18.3534V18.3384H5.56585L5.72593 18.3084C5.92966 18.2484 6.1334 18.2484 6.32258 18.2484C6.70095 18.2484 7.07931 18.1584 7.44312 18.0684C7.55954 17.9934 7.64686 17.9034 7.71962 17.7833L7.99612 17.7083C7.69052 15.6681 8.14164 13.6128 9.24764 11.9026L9.0439 11.7226C9.0439 11.5876 9.00024 11.4526 8.92748 11.3475C8.63643 11.0925 8.33083 10.8675 7.99612 10.6725C7.82149 10.5824 7.64686 10.4774 7.47223 10.3574C7.44312 10.3274 7.38491 10.2824 7.35581 10.2524L7.34126 10.2374C7.05021 9.99737 6.97744 9.60733 7.18118 9.29229C7.31215 9.14227 7.48678 9.06726 7.69052 9.06726C7.85059 9.08226 7.99612 9.14227 8.12709 9.24728L8.25806 9.35229C8.40359 9.48731 8.53456 9.65233 8.66554 9.80235C8.92748 10.0874 9.20398 10.3574 9.50958 10.5824C9.626 10.6425 9.75697 10.6575 9.88795 10.6275L10.1062 10.7925C11.1977 9.59232 12.6238 8.75222 14.1809 8.39217C14.5447 8.30216 14.9377 8.24216 15.316 8.21215L15.3306 7.94212C15.4311 7.85123 15.5022 7.73083 15.5343 7.59707C15.5489 7.20703 15.5198 6.81698 15.4616 6.44193C15.4179 6.24691 15.3888 6.03688 15.3742 5.82685V5.64683C15.3451 5.28679 15.5925 4.97175 15.9418 4.92674C16.2911 4.88173 16.5821 5.15177 16.6258 5.49681V5.82685C16.6112 6.03688 16.5821 6.24691 16.5384 6.44193C16.4802 6.81698 16.4511 7.20703 16.4657 7.59707C16.4948 7.74709 16.5675 7.85211 16.6694 7.92712L16.684 8.21215C18.6631 8.39217 20.4967 9.30729 21.8647 10.7925L22.0975 10.6125C22.2285 10.6425 22.3594 10.6275 22.4759 10.5674C22.7815 10.3424 23.0725 10.0724 23.3199 9.78735C23.4509 9.63733 23.5819 9.48731 23.7274 9.33729C23.771 9.30729 23.8293 9.24728 23.8729 9.24728C24.1203 8.97725 24.5132 8.97725 24.7315 9.24728C25.008 9.48731 24.9935 9.89236 24.7315 10.1474C24.7315 10.1774 24.6879 10.2074 24.6442 10.2374C24.4455 10.4001 24.2309 10.5408 24.0039 10.6575C23.6692 10.8525 23.349 11.0775 23.0725 11.3325C22.9852 11.4376 22.9415 11.5576 22.9561 11.6926L22.7233 11.9026C23.8405 13.5985 24.2977 15.6658 24.0039 17.6933L24.2804 17.7683C24.3386 17.8884 24.4405 17.9784 24.5569 18.0384C24.9207 18.1434 25.2991 18.2034 25.6774 18.2484H26.2741C26.3177 18.2934 26.3905 18.3084 26.4487 18.3234C26.798 18.3684 27.0308 18.6985 26.9871 19.0585C26.9144 19.4035 26.6379 19.6586 26.2886 19.6136C26.245 19.5986 26.1868 19.5986 26.1868 19.5836V19.5686C26.0994 19.5686 26.0412 19.5536 25.983 19.5386C25.7938 19.4786 25.6192 19.4035 25.4591 19.3135C25.0808 19.1635 24.7315 19.0585 24.3386 18.9985C24.2076 18.9985 24.0912 18.9985 24.0039 19.1185C23.902 19.1035 23.8147 19.0885 23.7274 19.0735C23.1307 21.0388 21.821 22.689 20.1329 23.7391Z" fill="black"/>
</svg>
