<svg width="16" height="15" viewBox="0 0 16 15" fill="none" xmlns="http://www.w3.org/2000/svg">
<path d="M11.6474 10.1686C11.5542 10.1686 11.4649 10.1315 11.399 10.0657C11.3332 9.99978 11.2961 9.91045 11.2961 9.81728L11.2957 4.70001L4.60397 11.3917C4.53804 11.4576 4.44861 11.4947 4.35537 11.4947C4.26213 11.4947 4.17271 11.4576 4.10678 11.3917C4.04085 11.3258 4.00381 11.2363 4.00381 11.1431C4.00381 11.0499 4.04085 10.9604 4.10678 10.8945L10.7985 4.20283L5.6812 4.20241C5.59016 4.1992 5.50393 4.16078 5.44066 4.09524C5.3774 4.0297 5.34204 3.94216 5.34204 3.85107C5.34204 3.75998 5.3774 3.67244 5.44066 3.6069C5.50393 3.54136 5.59016 3.50294 5.6812 3.49973L11.6474 3.49973C11.7406 3.49978 11.8299 3.53682 11.8958 3.6027C11.9617 3.66857 11.9987 3.7579 11.9988 3.85107L11.9988 9.81728C11.9987 9.91045 11.9617 9.99978 11.8958 10.0657C11.8299 10.1315 11.7406 10.1686 11.6474 10.1686Z" fill="white"/>
</svg>
