<svg width="32" height="32" viewBox="0 0 32 32" fill="none" xmlns="http://www.w3.org/2000/svg">
<g clip-path="url(#clip0_332_6011)">
<path d="M5.47761 0.00177782C5.10636 0.0187778 4.72236 0.160278 4.53136 0.610028C4.23653 1.59487 4.08283 2.61654 4.07486 3.64453L5.70536 4.43353C5.67536 3.46414 5.71337 2.49385 5.81911 1.52978C5.74295 2.48322 5.74186 3.44117 5.81586 4.39478C6.66097 3.67586 7.46751 2.9128 8.23211 2.10878C8.0714 1.68102 7.8279 1.28916 7.51556 0.955622C7.20322 0.622087 6.82816 0.353429 6.41186 0.165028C6.41186 0.165028 5.95536 -0.0199722 5.47761 0.00177782ZM5.81586 4.39453C5.84161 4.85203 5.88136 5.36428 5.93086 5.93128C5.93186 5.96028 5.93511 5.99078 5.94086 6.01953C5.98786 6.51528 6.04836 7.04853 6.12611 7.63003C6.19186 8.13228 6.26586 8.65903 6.35486 9.23053C6.42836 9.72353 6.51986 10.2405 6.61336 10.789L6.60486 10.7963C6.62161 10.8105 6.62386 10.822 6.62286 10.8298C6.63611 10.9035 6.64961 10.9683 6.66186 11.0428C6.70436 11.2595 6.74236 11.4793 6.78686 11.7003C6.83261 11.9413 6.88286 12.1868 6.93086 12.439C6.95436 12.5663 6.97911 12.6933 7.00561 12.823C7.08511 13.2115 7.17086 13.61 7.25886 14.0193C7.37286 14.524 7.48661 15.0418 7.61386 15.5808C7.72886 16.0908 7.86261 16.6223 7.99786 17.1623C8.12936 17.6778 8.26211 18.2058 8.40836 18.7525C8.53686 19.2358 8.6741 19.7325 8.81335 20.238C8.81335 20.2615 8.83011 20.288 8.83486 20.3128C8.97948 20.8287 9.1264 21.3439 9.27561 21.8585C9.27695 21.8702 9.28033 21.8815 9.2856 21.892L9.94636 21.2838C9.92986 21.2838 9.91761 21.2983 9.89511 21.3073C9.97967 21.2051 10.061 21.1003 10.1389 20.993C10.1592 21.0423 10.1789 21.0918 10.1981 21.1415C10.1163 21.1943 10.0323 21.2436 9.94636 21.2893L9.2856 21.8975C9.31035 21.9733 9.33011 22.049 9.35936 22.1285C9.45761 22.4778 9.56886 22.8408 9.68186 23.205C9.54411 23.151 9.41021 23.0876 9.28111 23.0153C9.19759 22.7277 9.11467 22.44 9.03236 22.152C9.00461 22.0493 8.97561 21.9533 8.94736 21.8495L8.94185 21.8468C8.82644 21.4399 8.71261 21.0326 8.60036 20.6248C8.56811 20.5053 8.53911 20.3888 8.50536 20.2693C8.36711 19.7528 8.22836 19.228 8.08811 18.699C7.9555 18.1872 7.82683 17.6743 7.70211 17.1605C7.57486 16.6413 7.45311 16.1188 7.33136 15.5975C7.21086 15.0755 7.09136 14.53 6.97986 13.9975C6.86711 13.465 6.76236 12.9335 6.65736 12.4045C6.61986 12.2125 6.58561 12.0263 6.55136 11.833C6.49111 11.5073 6.43636 11.178 6.37736 10.8475C6.37643 10.8292 6.37264 10.8112 6.36611 10.794L4.19986 9.68853C4.20561 9.72278 4.20786 9.75728 4.20886 9.79278C4.25236 10.2828 4.29361 10.781 4.35286 11.279C4.41086 11.7755 4.47311 12.2955 4.54911 12.8113C4.61286 13.2455 4.68186 13.6758 4.75336 14.1108C4.76761 14.1968 4.78586 14.2878 4.80036 14.3725C4.99105 15.4155 5.2347 16.4481 5.53036 17.4663C5.62386 17.7808 5.71661 18.0855 5.81136 18.3738C5.89386 18.6155 5.98311 18.859 6.06911 19.099C6.27417 19.6565 6.50279 20.205 6.75436 20.743L6.76061 20.7463C6.76711 20.768 6.77436 20.7885 6.78461 20.8095C7.08129 21.4496 7.41752 22.0705 7.79136 22.6688C7.80336 22.6863 7.81586 22.712 7.82911 22.73C7.28624 22.5816 6.72003 22.538 6.16086 22.6018C7.17698 22.884 8.10303 23.4237 8.84936 24.1688C8.48687 24.4861 8.04926 24.7055 7.57811 24.806C8.04612 24.8831 8.52602 24.8404 8.9731 24.682C8.54361 25.1449 8.2501 25.7172 8.12486 26.336C8.43306 25.7267 8.91161 25.22 9.50236 24.8775C9.60561 25.22 9.7176 25.575 9.82735 25.9265C8.8566 27.8185 7.86861 29.854 6.86161 32C6.98396 31.9836 7.10029 31.937 7.20008 31.8643C7.29987 31.7916 7.37996 31.6952 7.43311 31.5838C7.60911 31.2088 8.54486 29.2128 9.97886 26.413C10.5301 28.152 11.1516 29.988 11.8269 31.895C11.8936 31.8084 11.9379 31.7067 11.9558 31.5988C11.9737 31.4909 11.9646 31.3803 11.9294 31.2768C11.7981 30.9155 11.0836 28.8938 10.1846 26.0143C10.3974 25.6014 10.6118 25.1893 10.8276 24.778C10.9979 24.8209 11.1624 24.884 11.3176 24.966C11.6403 25.2767 11.8733 25.6686 11.9921 26.1005C12.0418 25.573 11.8828 25.0469 11.5491 24.6353C13.3291 24.979 14.9461 24.7503 15.9329 23.556C16.0216 23.4449 16.1057 23.3302 16.1851 23.2123C15.9535 23.4257 15.6683 23.5723 15.3599 23.6363C15.0515 23.7004 14.7316 23.6795 14.4341 23.576C15.4958 23.3497 16.4515 22.7751 17.1494 21.9435C17.3221 21.7373 17.4866 21.5243 17.6426 21.305C17.1112 21.7417 16.475 22.032 15.7969 22.1471C15.1187 22.2622 14.4223 22.1982 13.7766 21.9613L13.7644 21.9605C13.7494 21.9548 13.7341 21.9513 13.7144 21.9433C15.2213 21.8607 16.6639 21.305 17.8369 20.3553C18.4188 19.8805 18.9435 19.3396 19.4004 18.7435C19.7977 18.2269 20.1625 17.6861 20.4929 17.1243C20.8259 16.5613 21.1365 15.9854 21.4239 15.3978C21.106 15.5037 20.7752 15.5659 20.4406 15.5828L20.2476 15.5928H20.0511C21.1545 15.3206 22.1082 14.6289 22.7096 13.6645C22.2619 13.8809 21.7785 14.014 21.2831 14.0573C21.2061 14.0653 21.1236 14.0653 21.0411 14.0663H20.9786C21.3543 13.9757 21.7168 13.8377 22.0576 13.6555C22.1249 13.6212 22.1901 13.5829 22.2531 13.5405C22.3511 13.4793 22.4429 13.4113 22.5344 13.342C22.5934 13.294 22.6491 13.2505 22.7074 13.2025C22.8421 13.0856 22.9667 12.9574 23.0799 12.8195C23.1191 12.775 23.1561 12.7358 23.1874 12.689C23.2351 12.621 23.2819 12.5583 23.3234 12.4938C23.501 12.2401 23.6686 11.9795 23.8256 11.7125C23.8924 11.5988 23.9526 11.4905 24.0054 11.39C24.0241 11.3488 24.0479 11.314 24.0679 11.276C24.1226 11.161 24.1749 11.063 24.2129 10.9735C24.2586 10.871 24.2999 10.7653 24.3344 10.6568C24.2896 10.6846 24.2416 10.7071 24.1916 10.7238C23.7265 10.8871 23.2391 10.9781 22.7464 10.9938C22.7435 10.9919 22.7402 10.991 22.7369 10.991C22.7335 10.991 22.7302 10.9919 22.7274 10.9938C22.6935 10.9928 22.6597 10.9928 22.6259 10.9938C23.3568 10.8209 24.0218 10.4394 24.5399 9.89553C24.6717 9.75482 24.8004 9.61121 24.9259 9.46478C25.3331 8.9958 25.7172 8.50713 26.0766 8.00053C26.4063 7.54045 26.7114 7.06319 26.9906 6.57078C27.1378 6.31459 27.2716 6.0509 27.3914 5.78078C27.4743 5.58358 27.5506 5.38363 27.6201 5.18128C26.3704 5.21378 25.1199 5.18253 23.8736 5.08878C23.4894 5.52507 23.1135 5.96856 22.7461 6.41903C22.7227 6.44327 22.7017 6.46982 22.6836 6.49828C22.2982 6.97288 21.9214 7.45438 21.5534 7.94253C21.2109 8.39903 20.8446 8.88453 20.4629 9.41678C20.1314 9.87053 19.7964 10.3583 19.4406 10.8705L19.4181 10.8698C19.4241 10.891 19.4159 10.9023 19.4094 10.9078C19.3614 10.9758 19.3199 11.0408 19.2719 11.1088C19.1336 11.3173 18.9894 11.5238 18.8501 11.737C18.6945 11.9748 18.5371 12.2115 18.3781 12.447C18.2979 12.5685 18.2164 12.689 18.1336 12.8163C17.8881 13.1925 17.6414 13.5805 17.3861 13.9803C17.0633 14.49 16.7451 15.0027 16.4316 15.5183C16.1124 16.0423 15.7966 16.5683 15.4841 17.0963C15.1809 17.6153 14.8691 18.1463 14.5524 18.6968C14.2709 19.1875 13.9874 19.6968 13.6951 20.218C13.6794 20.2403 13.6686 20.2705 13.6526 20.2938C13.3581 20.8255 13.0669 21.359 12.7789 21.8943C12.7711 21.9034 12.7654 21.9141 12.7621 21.9255H12.7611C12.7176 22.0125 12.6726 22.0895 12.6316 22.172C12.3978 22.6053 12.1672 23.0402 11.9396 23.4768C11.9396 23.4825 11.9319 23.4878 11.9306 23.4935C11.8961 23.5593 11.8616 23.6173 11.8336 23.682C11.6774 23.978 11.5401 24.255 11.2316 24.8495C11.1364 24.7573 11.0309 24.6762 10.9174 24.6078C11.0704 24.3168 11.2186 24.032 11.3794 23.7303C11.4419 23.616 11.5089 23.4958 11.5714 23.3718L11.6239 23.2725C11.8591 22.8383 12.1014 22.392 12.3526 21.9355C12.4116 21.8298 12.4664 21.7293 12.5244 21.624V21.6185L12.2801 20.8893L12.2761 20.8635L12.5266 21.6108C12.7554 21.1933 12.9911 20.7783 13.2254 20.353C13.2879 20.2405 13.3591 20.1243 13.4251 20.0005C13.7241 19.4735 14.0296 18.9425 14.3391 18.3998C14.6386 17.8817 14.9437 17.3669 15.2541 16.8553C15.5676 16.3388 15.8816 15.8195 16.1974 15.3018C16.5217 14.7742 16.852 14.2503 17.1884 13.7303C17.5241 13.209 17.8591 12.7025 18.1929 12.1925C18.3143 12.0085 18.4383 11.8262 18.5646 11.6455C18.7769 11.3334 18.9915 11.0228 19.2084 10.7138C19.2176 10.6968 19.2316 10.6793 19.2409 10.6613L19.2419 10.6645C19.5911 10.1925 19.9329 9.71453 20.2744 9.24703C20.6382 8.75901 21.0068 8.27465 21.3804 7.79403C21.7556 7.31382 22.1418 6.84236 22.5389 6.38003C22.5611 6.35128 22.5856 6.32428 22.6069 6.30078C22.9783 5.86724 23.3593 5.44197 23.7496 5.02528L23.0646 3.09878C22.9826 3.17603 22.8961 3.25178 22.8076 3.33328C22.4651 3.6512 22.1284 3.97525 21.7976 4.30528C21.3864 4.71561 20.9809 5.13157 20.5811 5.55303C20.1858 5.97365 19.7962 6.39969 19.4126 6.83103C19.0727 7.21779 18.7369 7.60806 18.4051 8.00178L18.3659 8.04628L18.3699 8.05803C18.3486 8.08743 18.3252 8.11526 18.2999 8.14128C17.9451 8.57078 17.5849 9.00503 17.2319 9.45478C16.8712 9.9124 16.5182 10.376 16.1729 10.8453C15.8795 11.2453 15.5901 11.6483 15.3046 12.054C15.2476 12.1345 15.1896 12.2213 15.1349 12.3018C14.7921 12.8153 14.4596 13.3183 14.1674 13.8018C13.8522 14.3171 13.5515 14.8412 13.2656 15.3733C13.0959 15.689 12.9307 16.007 12.7699 16.3273C12.6439 16.5873 12.5224 16.8543 12.4016 17.1153C12.1243 17.7271 11.8722 18.35 11.6461 18.9825L11.7606 19.3235L11.7576 19.3295L11.6439 18.9903C11.6304 19.0157 11.6192 19.0422 11.6104 19.0695C11.4693 19.4644 11.3413 19.8638 11.2264 20.267C11.0342 20.5172 10.8092 20.7402 10.5574 20.93C10.5007 20.8454 10.4415 20.7625 10.3799 20.6815C10.9948 19.8139 11.3815 18.8054 11.5044 17.749C11.5748 17.0887 11.5677 16.4224 11.4831 15.7638C11.4138 15.1913 11.3079 14.6239 11.1661 14.065C11.0258 13.5043 10.8639 12.9493 10.6809 12.401C10.546 12.6654 10.3763 12.9105 10.1764 13.1298L10.0624 13.2548C10.0244 13.2973 9.98186 13.3343 9.93986 13.3788C10.4654 12.5222 10.636 11.4942 10.4151 10.5138C10.2676 10.9279 10.046 11.3117 9.76111 11.6465C9.71761 11.699 9.66611 11.7503 9.61486 11.8018C9.60136 11.8118 9.59136 11.8253 9.57361 11.8398C9.75418 11.5489 9.89668 11.2361 9.99761 10.909C10.0177 10.8453 10.0342 10.7804 10.0469 10.7148C10.0704 10.6153 10.0859 10.5145 10.1004 10.4145C10.1061 10.3473 10.1171 10.286 10.1229 10.2193C10.1364 10.0622 10.1364 9.90415 10.1229 9.74703C10.1229 9.69478 10.1229 9.64803 10.1104 9.59878C10.0971 9.52528 10.0881 9.45703 10.0746 9.39003C10.027 9.12146 9.97004 8.85463 9.90386 8.59003C9.8777 8.48468 9.84869 8.38005 9.81685 8.27628C9.8036 8.23828 9.79686 8.20128 9.78336 8.16128C9.74761 8.05753 9.71886 7.96128 9.68736 7.88228C9.65186 7.78806 9.61164 7.6957 9.56685 7.60553C9.55576 7.65068 9.53966 7.69445 9.51886 7.73603C9.33167 8.11624 9.0893 8.4667 8.79961 8.77603L8.77211 8.80078C8.76712 8.80424 8.76357 8.80939 8.76211 8.81528C8.73061 8.84675 8.70082 8.87988 8.67286 8.91453C8.67286 8.90878 8.67836 8.90403 8.68186 8.89903L8.69436 8.88778C9.04746 8.32419 9.22884 7.66998 9.21636 7.00503C9.21636 6.84203 9.20436 6.67003 9.19086 6.49378C9.15828 5.94574 9.09795 5.39971 9.01011 4.85778C8.93344 4.36226 8.83021 3.87122 8.70086 3.38678C8.63352 3.13411 8.55384 2.88489 8.46211 2.64003C8.39115 2.46515 8.31487 2.29249 8.23336 2.12228C7.46614 2.91983 6.65928 3.67829 5.81586 4.39478V4.39453ZM26.2619 0.929278C26.1191 0.932424 25.9783 0.962713 25.8469 1.01853C24.8288 1.5785 23.8951 2.2796 23.0734 3.10103L23.7584 5.03303C24.504 4.22823 25.3063 3.47781 26.1591 2.78753C25.3377 3.49265 24.5735 4.26172 23.8736 5.08753C25.1238 5.18043 26.378 5.20797 27.6311 5.17003C27.8422 4.69722 27.958 4.18741 27.9718 3.6698C27.9856 3.15218 27.8972 2.63693 27.7116 2.15353C27.7116 2.15353 27.1769 0.916528 26.2619 0.929278ZM4.07361 3.64803C4.07361 3.74603 4.06261 3.84778 4.05811 3.95478C4.04236 4.34428 4.03036 4.75478 4.02686 5.19478C4.02686 5.68553 4.02686 6.19803 4.03586 6.73378C4.04686 7.22803 4.06811 7.74278 4.09386 8.26628C4.12061 8.71378 4.14961 9.16578 4.18636 9.62778V9.68028L6.36486 10.7828C6.29236 10.2683 6.21336 9.75628 6.13611 9.24828C6.0612 8.71605 5.99278 8.18292 5.93086 7.64903C5.86748 7.11387 5.81763 6.5772 5.78136 6.03953C5.78136 6.00703 5.77561 5.97503 5.78136 5.94703C5.73993 5.44309 5.7135 4.93803 5.70211 4.43253L4.07361 3.64803ZM22.5811 10.993L22.5919 10.9938H22.5801L22.5811 10.993ZM12.0289 20.125L12.2159 20.684L12.2141 20.693L12.0274 20.135L12.0289 20.125ZM9.33211 23.1915C9.47423 23.3478 9.63159 23.4895 9.80186 23.6145C9.82986 23.707 9.88436 23.8783 9.91561 23.9785C9.80229 23.99 9.68952 24.0064 9.57761 24.0275C9.56286 23.9788 9.54911 23.9343 9.53461 23.885C9.50111 23.77 9.4706 23.6563 9.4331 23.5415C9.4226 23.509 9.41511 23.48 9.40511 23.4455L9.33211 23.1915ZM9.80961 24.3853C9.89149 24.3958 9.97303 24.4088 10.0541 24.4243C10.0881 24.5335 10.0961 24.5575 10.1406 24.701C10.2466 24.6975 10.3527 24.7014 10.4581 24.7128C10.3174 24.9795 10.1756 25.2563 10.0341 25.5298C9.92086 25.1633 9.80411 24.7798 9.68686 24.3898C9.72775 24.3876 9.76867 24.3862 9.80961 24.3853Z" fill="black"/>
</g>
<defs>
<clipPath id="clip0_332_6011">
<rect width="32" height="32" fill="white"/>
</clipPath>
</defs>
</svg>
