<svg width="200" height="201" viewBox="0 0 200 201" fill="none" xmlns="http://www.w3.org/2000/svg">
<path d="M102.441 3.68898L104.338 3.86188L106.904 12.2137L107.025 12.2248L111.054 4.47415L112.95 4.64704L112.009 15.0044L110.523 14.8689L111.203 7.37393L111.107 7.36517L107.373 14.5665L106.139 14.454L103.765 6.69067L103.669 6.68191L102.987 14.1819L101.501 14.0464L102.441 3.68898Z" fill="black"/>
<path d="M120.417 6.04681L118.267 16.2223L116.732 15.8968L118.882 5.72133L120.417 6.04681Z" fill="black"/>
<path d="M131.937 12.8317L130.43 12.3446C130.475 12.0036 130.459 11.6852 130.38 11.3892C130.301 11.0933 130.174 10.823 130 10.5783C129.827 10.3336 129.612 10.1219 129.357 9.94334C129.104 9.76578 128.82 9.62599 128.505 9.52399C127.934 9.33976 127.378 9.31819 126.834 9.45928C126.294 9.60141 125.805 9.90747 125.365 10.3775C124.929 10.8485 124.583 11.4836 124.325 12.2828C124.066 13.0885 123.976 13.8101 124.055 14.4476C124.138 15.0862 124.359 15.6202 124.719 16.0495C125.078 16.4788 125.54 16.7845 126.104 16.9667C126.416 17.0677 126.726 17.1215 127.034 17.1283C127.345 17.1329 127.642 17.0883 127.925 16.9946C128.207 16.901 128.467 16.7588 128.702 16.5681C128.942 16.3752 129.143 16.1308 129.306 15.8347L130.812 16.3267C130.575 16.7873 130.275 17.1847 129.911 17.5191C129.552 17.8512 129.144 18.1072 128.688 18.2871C128.236 18.4649 127.754 18.5599 127.241 18.5722C126.728 18.5844 126.2 18.5026 125.656 18.3267C124.799 18.0499 124.101 17.6002 123.561 16.9776C123.023 16.3518 122.683 15.5962 122.541 14.7108C122.402 13.8264 122.503 12.8573 122.842 11.8035C123.182 10.7465 123.667 9.90175 124.298 9.26934C124.929 8.6337 125.645 8.22111 126.446 8.03155C127.247 7.83878 128.075 7.88031 128.929 8.15613C129.454 8.32579 129.919 8.55973 130.325 8.85796C130.734 9.154 131.075 9.50585 131.345 9.9135C131.617 10.3179 131.805 10.7665 131.91 11.2593C132.015 11.7488 132.025 12.2729 131.937 12.8317Z" fill="black"/>
<path d="M133.631 21.0101L138.171 11.6533L141.503 13.2766C142.228 13.6294 142.768 14.0471 143.125 14.5296C143.485 15.0136 143.676 15.5342 143.699 16.0915C143.724 16.6457 143.596 17.2107 143.317 17.7864C143.039 18.359 142.674 18.8045 142.223 19.123C141.775 19.4398 141.253 19.6015 140.655 19.6079C140.061 19.6157 139.401 19.4433 138.677 19.0904L136.152 17.8607L136.742 16.6454L139.139 17.8129C139.595 18.0352 139.998 18.1506 140.348 18.159C140.701 18.1689 141.005 18.0815 141.26 17.897C141.515 17.7125 141.727 17.4451 141.897 17.0948C142.069 16.7415 142.149 16.402 142.137 16.0764C142.129 15.7523 142.014 15.4513 141.791 15.1734C141.573 14.8939 141.231 14.6408 140.765 14.4139L138.994 13.5512L135.042 21.6973L133.631 21.0101ZM140.295 19.0368L140.556 24.3835L138.949 23.6008L138.733 18.2763L140.295 19.0368Z" fill="black"/>
<path d="M154.078 26.8178C153.456 27.7375 152.753 28.4142 151.969 28.8477C151.187 29.2784 150.383 29.4731 149.557 29.4317C148.735 29.3894 147.953 29.1162 147.211 28.6122C146.466 28.1063 145.921 27.4779 145.574 26.7271C145.233 25.9754 145.118 25.1545 145.229 24.2645C145.341 23.3745 145.707 22.471 146.327 21.5541C146.949 20.6344 147.651 19.9591 148.433 19.5284C149.217 19.0949 150.019 18.8993 150.841 18.9416C151.667 18.9829 152.453 19.2566 153.198 19.7625C153.94 20.2665 154.482 20.8944 154.824 21.6461C155.17 22.397 155.287 23.2174 155.176 24.1074C155.066 24.9946 154.7 25.898 154.078 26.8178ZM152.792 25.9448C153.267 25.2438 153.552 24.5765 153.65 23.9429C153.752 23.3085 153.691 22.7347 153.466 22.2217C153.245 21.7077 152.888 21.2834 152.395 20.9486C151.9 20.612 151.373 20.4363 150.815 20.4215C150.259 20.4039 149.704 20.5592 149.151 20.8874C148.602 21.2148 148.091 21.7289 147.617 22.43C147.143 23.131 146.854 23.7987 146.752 24.4332C146.655 25.0667 146.716 25.6405 146.937 26.1544C147.159 26.6656 147.518 27.0895 148.014 27.4261C148.507 27.7608 149.031 27.937 149.587 27.9546C150.148 27.9713 150.703 27.816 151.251 27.4887C151.804 27.1604 152.318 26.6458 152.792 25.9448Z" fill="black"/>
<path d="M158.727 37.4508L157.565 36.2575L167.613 31.669L168.877 32.9679L164.051 42.9192L162.889 41.7258L166.924 33.6699L166.868 33.6117L158.727 37.4508ZM161.834 34.804L165.603 38.6752L164.659 39.5981L160.89 35.727L161.834 34.804Z" fill="black"/>
<path d="M179.848 46.3839L171.433 52.4948L170.588 51.3263L173.661 42.5613L173.605 42.4831L167.433 46.9648L166.513 45.6934L174.929 39.5826L175.78 40.7593L172.701 49.5344L172.757 49.6126L178.937 45.1249L179.848 46.3839Z" fill="black"/>
<path d="M183.552 52.448L174.553 57.6604L173.769 56.3012L182.768 51.0889L183.552 52.448Z" fill="black"/>
<path d="M185.935 56.4235L186.684 58.1743L180.557 64.4086L180.605 64.5207L189.336 64.3745L190.085 66.1253L180.529 70.2294L179.942 68.8567L186.857 65.8869L186.819 65.7982L178.711 65.942L178.224 64.8028L183.923 59.017L183.885 58.9283L176.966 61.9001L176.379 60.5275L185.935 56.4235Z" fill="black"/>
<path d="M182.34 75.7945L181.927 74.1809L192.928 75.2186L193.377 76.9748L184.232 83.1886L183.819 81.575L191.334 76.6086L191.313 76.5299L182.34 75.7945ZM186.354 75.0516L187.693 80.286L186.415 80.6146L185.075 75.3802L186.354 75.0516Z" fill="black"/>
<path d="M193.542 83.7073L194.883 83.5417L195.866 91.5303L194.525 91.6959L194.129 88.4753L185.148 89.5847L184.957 88.0324L193.938 86.9229L193.542 83.7073Z" fill="black"/>
<path d="M196.168 97.8089L185.773 98.1144L185.727 96.546L196.122 96.2404L196.168 97.8089Z" fill="black"/>
<path d="M190.455 110.969C189.347 110.884 188.411 110.609 187.645 110.143C186.882 109.677 186.314 109.076 185.939 108.337C185.567 107.603 185.415 106.788 185.483 105.894C185.551 104.996 185.824 104.21 186.303 103.537C186.785 102.868 187.44 102.361 188.267 102.016C189.095 101.672 190.06 101.542 191.164 101.626C192.272 101.711 193.206 101.986 193.969 102.451C194.735 102.917 195.304 103.517 195.676 104.252C196.051 104.99 196.204 105.808 196.136 106.706C196.068 107.601 195.793 108.383 195.311 109.052C194.832 109.725 194.179 110.234 193.351 110.578C192.527 110.923 191.562 111.053 190.455 110.969ZM190.572 109.419C191.416 109.483 192.137 109.401 192.735 109.172C193.336 108.946 193.803 108.608 194.136 108.158C194.472 107.712 194.663 107.191 194.708 106.597C194.753 106 194.644 105.455 194.379 104.963C194.118 104.471 193.707 104.066 193.147 103.748C192.59 103.434 191.89 103.245 191.046 103.181C190.202 103.116 189.48 103.197 188.879 103.423C188.281 103.652 187.814 103.99 187.478 104.436C187.145 104.883 186.956 105.405 186.91 106.003C186.865 106.597 186.973 107.14 187.235 107.632C187.499 108.127 187.91 108.532 188.467 108.846C189.026 109.164 189.728 109.355 190.572 109.419Z" fill="black"/>
<path d="M192.954 125.39L182.826 123.023L183.153 121.619L191.779 118.205L191.801 118.111L184.374 116.376L184.729 114.848L194.857 117.214L194.527 118.629L185.891 122.044L185.869 122.138L193.306 123.876L192.954 125.39Z" fill="black"/>
<path d="M186.625 135.518C187.093 135.642 187.52 135.569 187.909 135.299C188.3 135.03 188.604 134.618 188.819 134.062C188.974 133.665 189.044 133.296 189.031 132.957C189.021 132.618 188.938 132.326 188.783 132.08C188.63 131.839 188.416 131.665 188.142 131.558C187.911 131.468 187.692 131.444 187.483 131.486C187.273 131.532 187.077 131.62 186.895 131.753C186.714 131.89 186.547 132.046 186.391 132.221C186.239 132.398 186.102 132.572 185.982 132.743L185.368 133.594C185.172 133.873 184.946 134.151 184.691 134.425C184.435 134.7 184.148 134.935 183.828 135.13C183.509 135.325 183.16 135.447 182.782 135.496C182.402 135.548 181.995 135.489 181.56 135.319C181.011 135.105 180.579 134.773 180.263 134.323C179.946 133.876 179.769 133.336 179.732 132.704C179.693 132.075 179.821 131.381 180.115 130.624C180.397 129.898 180.756 129.315 181.192 128.875C181.628 128.434 182.116 128.147 182.655 128.012C183.197 127.878 183.766 127.909 184.362 128.105L183.792 129.573C183.431 129.464 183.095 129.464 182.784 129.572C182.476 129.684 182.204 129.874 181.969 130.142C181.736 130.415 181.546 130.739 181.401 131.114C181.24 131.528 181.162 131.921 181.166 132.293C181.172 132.67 181.256 132.997 181.417 133.274C181.581 133.552 181.821 133.753 182.136 133.876C182.423 133.988 182.69 133.998 182.937 133.905C183.182 133.815 183.419 133.655 183.647 133.424C183.873 133.196 184.1 132.927 184.326 132.615L185.083 131.591C185.596 130.898 186.146 130.403 186.732 130.109C187.318 129.818 187.948 129.803 188.623 130.067C189.181 130.284 189.61 130.626 189.908 131.091C190.207 131.557 190.371 132.093 190.4 132.7C190.432 133.309 190.322 133.938 190.07 134.588C189.815 135.245 189.475 135.779 189.05 136.191C188.623 136.606 188.152 136.88 187.635 137.013C187.122 137.147 186.602 137.119 186.077 136.928L186.625 135.518Z" fill="black"/>
<path d="M174.719 142.754L175.606 141.344L182.407 150.065L181.442 151.599L170.656 149.215L171.542 147.805L180.304 149.86L180.347 149.791L174.719 142.754ZM178.014 145.165L175.137 149.739L174.021 149.034L176.897 144.46L178.014 145.165Z" fill="black"/>
<path d="M168.519 152.212L176.48 158.905L174.099 161.747C173.582 162.364 173.047 162.787 172.493 163.016C171.937 163.248 171.386 163.307 170.841 163.193C170.298 163.082 169.782 162.82 169.292 162.409C168.805 161.999 168.462 161.536 168.263 161.019C168.065 160.508 168.035 159.961 168.174 159.378C168.311 158.799 168.637 158.2 169.155 157.582L170.958 155.43L171.992 156.299L170.28 158.343C169.954 158.732 169.744 159.096 169.652 159.433C169.556 159.773 169.567 160.09 169.684 160.383C169.801 160.676 170.008 160.947 170.306 161.198C170.607 161.451 170.916 161.611 171.234 161.68C171.55 161.751 171.87 161.712 172.193 161.563C172.516 161.42 172.845 161.149 173.177 160.752L174.442 159.241L167.512 153.415L168.519 152.212ZM168.814 159.167L163.573 158.118L164.721 156.747L169.93 157.836L168.814 159.167Z" fill="black"/>
<path d="M161.176 160.688L168.235 168.326L163.455 172.761L162.538 171.769L166.168 168.401L164.017 166.074L160.637 169.21L159.723 168.222L163.104 165.086L160.943 162.748L157.268 166.157L156.351 165.165L161.176 160.688Z" fill="black"/>
<path d="M149.646 170.512L155.275 179.257L149.859 182.757L149.128 181.622L153.226 178.973L151.511 176.308L147.801 178.706L147.072 177.575L150.783 175.177L148.328 171.364L149.646 170.512Z" fill="black"/>
<path d="M139.328 188.273L137.903 188.942L135.005 182.746C134.696 182.087 134.578 181.43 134.649 180.776C134.722 180.125 134.97 179.522 135.395 178.967C135.821 178.415 136.411 177.962 137.164 177.608C137.915 177.256 138.638 177.092 139.334 177.117C140.031 177.145 140.653 177.339 141.199 177.699C141.746 178.063 142.174 178.575 142.483 179.234L145.382 185.43L143.961 186.097L141.116 180.016C140.917 179.59 140.646 179.255 140.304 179.012C139.96 178.77 139.57 178.635 139.134 178.607C138.701 178.583 138.246 178.682 137.771 178.905C137.293 179.13 136.925 179.417 136.666 179.767C136.406 180.121 136.261 180.507 136.232 180.924C136.2 181.343 136.284 181.766 136.483 182.192L139.328 188.273Z" fill="black"/>
<path d="M124.169 193.644L121.229 183.668L122.612 183.259L129.838 189.075L129.93 189.048L127.774 181.732L129.278 181.286L132.219 191.262L130.826 191.674L123.593 185.85L123.5 185.877L125.66 193.203L124.169 193.644Z" fill="black"/>
<path d="M108.358 190.945L108.214 189.638L112.797 189.132L112.941 190.439L108.358 190.945Z" fill="black"/>
<path d="M98.3944 196.854L96.4966 196.698L93.8589 188.368L93.7374 188.358L89.7756 196.143L87.8778 195.987L88.7295 185.622L90.2174 185.744L89.6011 193.245L89.6972 193.253L93.3691 186.02L94.604 186.121L97.0453 193.864L97.1415 193.872L97.7582 186.366L99.2461 186.489L98.3944 196.854Z" fill="black"/>
<path d="M80.4073 194.653L82.4679 184.459L84.0057 184.771L81.9451 194.965L80.4073 194.653Z" fill="black"/>
<path d="M68.8191 187.967L70.331 188.441C70.2882 188.782 70.3076 189.101 70.3892 189.396C70.4708 189.691 70.5995 189.96 70.7754 190.204C70.9512 190.447 71.1677 190.657 71.4247 190.833C71.6785 191.008 71.9637 191.146 72.2803 191.245C72.852 191.424 73.409 191.441 73.951 191.295C74.4899 191.148 74.9769 190.838 75.4122 190.364C75.8442 189.889 76.1853 189.251 76.4356 188.45C76.6879 187.642 76.7716 186.92 76.6868 186.283C76.5987 185.645 76.3729 185.113 76.0095 184.687C75.6461 184.261 75.1817 183.959 74.6164 183.782C74.303 183.683 73.9927 183.632 73.6854 183.628C73.3739 183.626 73.0772 183.673 72.7954 183.77C72.5136 183.866 72.2557 184.01 72.0217 184.203C71.7835 184.398 71.5842 184.644 71.4239 184.941L69.9136 184.463C70.1468 184 70.4437 183.6 70.8045 183.262C71.161 182.927 71.5666 182.668 72.0212 182.484C72.4716 182.302 72.953 182.203 73.4654 182.186C73.9779 182.169 74.507 182.247 75.0529 182.418C75.9122 182.687 76.6142 183.131 77.159 183.749C77.7027 184.37 78.0494 185.122 78.1988 186.006C78.3451 186.89 78.2532 187.86 77.9232 188.916C77.5922 189.976 77.1142 190.825 76.4894 191.463C75.8636 192.104 75.1512 192.523 74.3521 192.719C73.552 192.919 72.7239 192.885 71.8679 192.616C71.3414 192.451 70.8741 192.221 70.466 191.927C70.0537 191.634 69.7105 191.285 69.4363 190.88C69.1611 190.478 68.969 190.031 68.8602 189.539C68.7503 189.051 68.7366 188.527 68.8191 187.967Z" fill="black"/>
<path d="M67.0679 179.805L62.6094 189.201L59.2627 187.607C58.5353 187.26 57.9912 186.847 57.6304 186.368C57.2665 185.887 57.0706 185.368 57.0426 184.811C57.0132 184.257 57.1356 183.691 57.4099 183.113C57.6828 182.538 58.0437 182.089 58.4927 181.767C58.9372 181.446 59.4582 181.28 60.0558 181.268C60.6503 181.255 61.3112 181.422 62.0386 181.768L64.5739 182.976L63.9948 184.196L61.5879 183.05C61.1295 182.832 60.7254 182.72 60.3757 182.714C60.0229 182.708 59.7198 182.797 59.4663 182.984C59.2128 183.171 59.0026 183.44 58.8357 183.792C58.6674 184.147 58.5903 184.487 58.6045 184.812C58.6156 185.136 58.7337 185.436 58.9587 185.712C59.1792 185.99 59.5233 186.24 59.9909 186.463L61.7697 187.31L65.6513 179.13L67.0679 179.805ZM60.4214 181.836L60.1132 176.492L61.7269 177.261L61.9893 182.583L60.4214 181.836Z" fill="black"/>
<path d="M46.5568 174.172C47.1711 173.247 47.8682 172.564 48.6482 172.124C49.4264 171.686 50.2287 171.485 51.0553 171.519C51.8772 171.554 52.6613 171.821 53.4078 172.318C54.1571 172.818 54.7081 173.442 55.0608 174.189C55.4089 174.938 55.531 175.758 55.427 176.649C55.3231 177.54 54.9649 178.446 54.3525 179.369C53.7382 180.294 53.042 180.975 52.2639 181.412C51.4839 181.852 50.683 182.055 49.8611 182.02C49.0345 181.985 48.2466 181.719 47.4973 181.219C46.7508 180.721 46.2036 180.098 45.8555 179.349C45.5028 178.602 45.3784 177.782 45.4823 176.891C45.5844 176.003 45.9426 175.097 46.5568 174.172ZM47.8498 175.034C47.3816 175.739 47.1014 176.408 47.0094 177.043C46.9126 177.678 46.979 178.251 47.2085 178.762C47.4334 179.274 47.7937 179.696 48.2895 180.026C48.7881 180.358 49.3165 180.53 49.8747 180.54C50.431 180.553 50.9844 180.392 51.5346 180.059C52.0802 179.727 52.5871 179.209 53.0553 178.504C53.5235 177.799 53.806 177.129 53.9028 176.493C53.9949 175.859 53.9285 175.286 53.7036 174.774C53.4769 174.264 53.1142 173.844 52.6156 173.511C52.1198 173.181 51.5938 173.009 51.0374 172.996C50.4764 172.984 49.9231 173.144 49.3775 173.476C48.8272 173.809 48.318 174.328 47.8498 175.034Z" fill="black"/>
<path d="M41.8213 163.58L42.9935 164.763L32.9852 169.438L31.7094 168.15L36.4501 158.157L37.6223 159.341L33.6564 167.431L33.7136 167.489L41.8213 163.58ZM38.7369 166.253L34.9345 162.415L35.8708 161.484L39.6731 165.322L38.7369 166.253Z" fill="black"/>
<path d="M20.6259 154.83L28.9883 148.647L29.8435 149.808L26.8455 158.599L26.9027 158.677L33.0357 154.142L33.9662 155.406L25.6038 161.589L24.7425 160.419L27.7457 151.618L27.6885 151.54L21.5474 156.081L20.6259 154.83Z" fill="black"/>
<path d="M16.8727 148.796L25.8269 143.507L26.6227 144.859L17.6685 150.149L16.8727 148.796Z" fill="black"/>
<path d="M14.454 144.848L13.6897 143.104L19.7612 136.816L19.7123 136.705L10.9834 136.927L10.2192 135.183L19.739 130.995L20.3381 132.363L13.4493 135.393L13.488 135.481L21.5938 135.267L22.091 136.402L16.4424 142.237L16.4811 142.325L23.3746 139.293L23.9737 140.661L14.454 144.848Z" fill="black"/>
<path d="M17.8815 125.446L18.3085 127.056L7.29921 126.114L6.83442 124.362L15.9247 118.069L16.3517 119.679L8.8812 124.711L8.90203 124.789L17.8815 125.446ZM13.8744 126.224L12.4891 121.001L13.765 120.662L15.1502 125.884L13.8744 126.224Z" fill="black"/>
<path d="M6.61094 117.622L5.27183 117.799L4.22057 109.819L5.55969 109.642L5.98351 112.859L14.9546 111.673L15.1589 113.223L6.18779 114.41L6.61094 117.622Z" fill="black"/>
<path d="M3.86195 103.557L14.2544 103.162L14.3138 104.73L3.92134 105.125L3.86195 103.557Z" fill="black"/>
<path d="M9.46356 90.3431C10.5714 90.4181 11.5103 90.6852 12.2802 91.1444C13.0466 91.6034 13.6206 92.2004 14.002 92.9354C14.3803 93.6668 14.5393 94.48 14.479 95.3751C14.4186 96.2736 14.1517 97.0614 13.6786 97.7386C13.2024 98.4121 12.552 98.9246 11.7276 99.276C10.9032 99.6275 9.93868 99.7658 8.83418 99.6911C7.72629 99.6162 6.78911 99.3492 6.02265 98.8902C5.2528 98.4309 4.67873 97.8356 4.30044 97.1042C3.91901 96.3693 3.75854 95.5526 3.81903 94.6541C3.87929 93.759 4.14756 92.9746 4.62383 92.3011C5.09695 91.6239 5.74573 91.1096 6.57015 90.7582C7.3912 90.4065 8.35567 90.2682 9.46356 90.3431ZM9.35917 91.8935C8.51475 91.8364 7.79453 91.9251 7.19852 92.1596C6.59937 92.3906 6.13525 92.7324 5.80617 93.1852C5.47395 93.6344 5.28782 94.1562 5.2478 94.7507C5.20754 95.3486 5.32192 95.8924 5.59092 96.3823C5.85655 96.8719 6.27063 97.2731 6.83318 97.586C7.39257 97.8953 8.09448 98.0785 8.9389 98.1356C9.78333 98.1928 10.5051 98.1059 11.1043 97.8749C11.7003 97.6404 12.1644 97.2985 12.4966 96.8494C12.8255 96.4 13.01 95.8763 13.0503 95.2785C13.0903 94.684 12.9775 94.1419 12.7119 93.6523C12.4431 93.1591 12.029 92.7578 11.4696 92.4485C10.9071 92.1356 10.2036 91.9506 9.35917 91.8935Z" fill="black"/>
<path d="M6.84326 75.9487L16.9908 78.2262L16.6762 79.6336L8.08065 83.1223L8.0596 83.2165L15.5018 84.8867L15.1595 86.4181L5.0119 84.1406L5.32876 82.7233L13.9353 79.2318L13.9564 79.1377L6.50424 77.4652L6.84326 75.9487Z" fill="black"/>
<path d="M13.0817 65.7533C12.6132 65.6332 12.1859 65.7098 11.8001 65.9833C11.411 66.2555 11.111 66.6703 10.9001 67.2275C10.7491 67.6264 10.6817 67.9956 10.698 68.335C10.7111 68.6732 10.7963 68.9645 10.9535 69.209C11.1088 69.4491 11.3241 69.6215 11.5994 69.7261C11.8304 69.8139 12.0501 69.8359 12.2586 69.792C12.4683 69.7449 12.6636 69.6544 12.8447 69.5204C13.0238 69.382 13.1902 69.2244 13.3441 69.0475C13.4948 68.8693 13.6298 68.6943 13.7492 68.5224L14.3556 67.6664C14.5491 67.385 14.7724 67.1059 15.0256 66.8291C15.2788 66.5523 15.5641 66.3149 15.8816 66.1168C16.1991 65.9188 16.5469 65.7939 16.9249 65.742C17.3041 65.6869 17.7121 65.7424 18.1488 65.9084C18.6994 66.1177 19.1344 66.446 19.4537 66.8934C19.7742 67.3375 19.956 67.8756 19.9991 68.5077C20.0434 69.1366 19.9217 69.831 19.634 70.5909C19.3583 71.3191 19.0043 71.9052 18.5719 72.3493C18.1395 72.7934 17.6544 73.0853 17.1164 73.2249C16.5754 73.3633 16.0061 73.337 15.4087 73.1461L15.9661 71.6739C16.3281 71.7789 16.664 71.7762 16.9737 71.6658C17.2814 71.5509 17.5515 71.3585 17.7841 71.0883C18.0147 70.8138 18.2014 70.4882 18.344 70.1114C18.501 69.6966 18.5758 69.3031 18.5683 68.9309C18.5589 68.5542 18.4724 68.228 18.309 67.9522C18.1423 67.6752 17.9008 67.4765 17.5844 67.3562C17.2964 67.2468 17.0295 67.2395 16.7836 67.3343C16.5389 67.426 16.3037 67.5884 16.078 67.8213C15.8535 68.051 15.6294 68.3226 15.4058 68.636L14.6574 69.6662C14.1505 70.3645 13.6051 70.8634 13.0211 71.1629C12.4383 71.4593 11.8083 71.4788 11.1311 71.2214C10.571 71.0084 10.1396 70.6706 9.83692 70.2079C9.53427 69.7452 9.36573 69.2103 9.3313 68.6032C9.2937 67.995 9.39836 67.3647 9.64528 66.7125C9.8946 66.0539 10.23 65.5169 10.6516 65.1013C11.0744 64.6825 11.5435 64.4045 12.0588 64.2671C12.571 64.1286 13.0905 64.1523 13.6175 64.3381L13.0817 65.7533Z" fill="black"/>
<path d="M24.9318 58.4163L24.0573 59.8338L17.181 51.1724L18.133 49.6295L28.9395 51.9207L28.0649 53.3382L19.2856 51.359L19.2429 51.4281L24.9318 58.4163ZM21.6162 56.0341L24.4533 51.4357L25.5757 52.131L22.7386 56.7293L21.6162 56.0341Z" fill="black"/>
<path d="M31.046 48.9078L23.0287 42.2834L25.3844 39.4212C25.8964 38.799 26.4283 38.3712 26.9801 38.1376C27.534 37.9015 28.0841 37.8378 28.6303 37.9465C29.1739 38.0532 29.6924 38.3103 30.1856 38.7178C30.6763 39.1232 31.0232 39.5833 31.2264 40.0982C31.4292 40.6083 31.4638 41.155 31.33 41.7384C31.1984 42.3191 30.8766 42.9205 30.3646 43.5427L28.5801 45.7109L27.5388 44.8505L29.2329 42.7921C29.5556 42.4 29.762 42.0347 29.852 41.6963C29.9442 41.3552 29.9306 41.0388 29.8112 40.7469C29.6919 40.4551 29.4821 40.1852 29.182 39.9372C28.8793 39.6871 28.5686 39.5292 28.2499 39.4635C27.9334 39.3952 27.6143 39.4367 27.2925 39.588C26.9702 39.7346 26.6445 40.0078 26.3153 40.4077L25.0632 41.929L32.0432 47.6962L31.046 48.9078ZM30.6913 41.955L35.9414 42.9597L34.8055 44.3399L29.5877 43.296L30.6913 41.955Z" fill="black"/>
<path d="M38.315 40.368L31.1913 32.7909L35.9331 28.3154L36.8584 29.2995L33.2577 32.698L35.4282 35.0066L38.7814 31.8417L39.7032 32.8222L36.35 35.9871L38.5309 38.3068L42.1759 34.8666L43.1011 35.8507L38.315 40.368Z" fill="black"/>
<path d="M49.7577 30.4442L44.0537 21.748L49.4401 18.2012L50.1809 19.3307L46.1051 22.0145L47.843 24.6642L51.5329 22.2345L52.271 23.3597L48.5811 25.7894L51.0682 29.5813L49.7577 30.4442Z" fill="black"/>
<path d="M59.9208 12.5981L61.3398 11.9165L64.2922 18.0868C64.6063 18.7434 64.7306 19.3991 64.6649 20.0541C64.5978 20.7061 64.3545 21.3112 63.9348 21.8696C63.5137 22.4249 62.9279 22.8829 62.1772 23.2435C61.4295 23.6026 60.7078 23.7728 60.012 23.754C59.3147 23.7321 58.6915 23.5432 58.1421 23.1874C57.5914 22.8285 57.1589 22.3208 56.8447 21.6642L53.8923 15.494L55.3068 14.8145L58.2044 20.8703C58.4075 21.2948 58.681 21.6272 59.025 21.8676C59.372 22.1065 59.7632 22.2378 60.1986 22.2615C60.6326 22.2822 61.0861 22.1789 61.5591 21.9517C62.0351 21.723 62.401 21.4327 62.6567 21.0808C62.914 20.7243 63.0553 20.3372 63.0805 19.9195C63.1089 19.5002 63.0215 19.0784 62.8184 18.6539L59.9208 12.5981Z" fill="black"/>
<path d="M75.0397 7.09463L78.0664 17.0445L76.6871 17.4657L69.4115 11.7125L69.3192 11.7407L71.539 19.0378L70.0382 19.4961L67.0116 9.54631L68.4006 9.12212L75.684 14.8836L75.7763 14.8554L73.5535 7.54848L75.0397 7.09463Z" fill="black"/>
<path d="M90.873 9.6557L91.0279 10.9618L86.4493 11.5069L86.2944 10.2008L90.873 9.6557Z" fill="black"/>
</svg>
