<svg width="32" height="32" viewBox="0 0 32 32" fill="none" xmlns="http://www.w3.org/2000/svg">
<g clip-path="url(#clip0_332_5894)">
<path d="M0.01275 18.3985L8.45481 18.3984C8.52142 19.0526 8.70011 19.6904 8.98306 20.284L1.74625 24.6436C0.796875 23.0064 0.197875 20.9239 0.01275 18.3985ZM8.25037 30.6987L11.4633 22.8961C11.1325 22.7198 10.8198 22.5114 10.5297 22.2739L4.56281 28.2409C5.78094 29.3383 7.03544 30.1603 8.25037 30.6987ZM4.15013 27.8458L10.1054 21.8904C9.79706 21.5802 9.51275 21.2123 9.25119 20.7894L2.032 25.1383C2.68769 26.2051 3.41625 27.1288 4.15013 27.8458ZM23.7749 28.2412L17.8043 22.2709C17.7391 22.3237 17.6728 22.3751 17.6053 22.425L21.9622 29.6575C22.5703 29.2791 23.1741 28.7935 23.7749 28.2412ZM21.4787 29.962L17.1309 22.7446C15.5081 23.6508 13.7985 23.8416 11.9805 23.1406L8.77419 30.9271C13.1617 32.7063 17.7092 32.1966 21.4787 29.962ZM10.7321 13.2294L6.37531 5.99688C5.74006 6.40457 5.13663 6.87851 4.56244 7.41313L10.5329 13.3836C10.5985 13.3312 10.6649 13.2798 10.7321 13.2294ZM0 17.8273L8.42262 17.8271C8.44081 16.3373 8.967 14.972 10.1056 13.7643L4.15019 7.80882C1.401 10.7221 0.032 14.066 0 17.8273ZM14.1684 12.0811L14.1687 3.65876C11.3732 3.67588 8.91844 4.42913 6.85875 5.69244L11.2064 12.9099C12.0237 12.4301 12.9979 12.0987 14.1683 12.0812M25.8186 9.76132L19.603 15.9771C19.7433 16.3916 19.8366 16.8205 19.8813 17.2558H28.3244C28.2693 14.6946 27.4242 12.1971 25.8186 9.76132ZM28.3361 17.8271H19.9144C19.8852 19.4046 19.2957 20.8423 18.2317 21.8904L24.1873 27.8458C26.9261 25.1506 28.2574 21.7866 28.3361 17.8271ZM14.74 3.67126L14.7396 12.1142C15.1822 12.1643 15.6073 12.2606 16.0187 12.3926L22.2322 6.17919C20.0364 4.64325 17.4484 3.78157 14.74 3.67126ZM26.9344 0.162318C24.4866 0.87838 23.4636 3.61126 24.5105 5.70432L15.9255 14.2894C13.9001 13.2796 11.2441 14.1913 10.4383 16.5415C9.45606 19.4065 11.9535 22.2791 14.9229 21.6998C17.5486 21.1876 18.8173 18.3131 17.7021 16.0742L26.2951 7.48126C28.4614 8.55788 31.2659 7.41469 31.8824 4.87788C32.5968 1.93807 29.8413 -0.687995 26.9344 0.162318Z" fill="black"/>
</g>
<defs>
<clipPath id="clip0_332_5894">
<rect width="32" height="32" fill="white"/>
</clipPath>
</defs>
</svg>
