<svg width="32" height="32" viewBox="0 0 32 32" fill="none" xmlns="http://www.w3.org/2000/svg">
<path d="M16.3333 1C8.96667 1 3 3.98333 3 7.66667C3 11.35 8.96667 14.3333 16.3333 14.3333C23.7 14.3333 29.6667 11.35 29.6667 7.66667C29.6667 3.98333 23.7 1 16.3333 1ZM3 11V16C3 19.6833 8.96667 22.6667 16.3333 22.6667C23.7 22.6667 29.6667 19.6833 29.6667 16V11C29.6667 14.6833 23.7 17.6667 16.3333 17.6667C8.96667 17.6667 3 14.6833 3 11ZM3 19.3333V24.3333C3 28.0167 8.96667 31 16.3333 31C23.7 31 29.6667 28.0167 29.6667 24.3333V19.3333C29.6667 23.0167 23.7 26 16.3333 26C8.96667 26 3 23.0167 3 19.3333Z" fill="black"/>
</svg>
