<svg width="32" height="32" viewBox="0 0 32 32" fill="none" xmlns="http://www.w3.org/2000/svg">
<path d="M31 16.4899C31 14.2335 28.8858 12.2567 25.5258 10.9635C25.5716 10.6793 25.6474 10.3793 25.6837 10.103C26.0263 6.85354 25.2526 4.5088 23.5063 3.49986C21.5563 2.37249 18.7963 3.20617 16.0047 5.45617C13.2084 3.20933 10.4453 2.37564 8.5 3.49986C6.75211 4.5088 5.97368 6.85354 6.32263 10.103C6.35105 10.3793 6.42842 10.6793 6.47263 10.9635C3.11421 12.2567 1 14.2335 1 16.4899C1 18.7462 3.11421 20.723 6.47263 22.0162C6.42842 22.3004 6.35105 22.6004 6.32263 22.8767C5.97842 26.1262 6.75211 28.4709 8.5 29.4799C9.09368 29.8162 9.7679 29.9883 10.45 29.9788C12.5196 29.7886 14.4692 28.9231 15.9984 27.5156C17.5281 28.9234 19.4783 29.7889 21.5484 29.9788C22.2317 29.9885 22.9052 29.8163 23.5 29.4799C25.2463 28.4709 26.0263 26.1262 25.6774 22.8767C25.6474 22.6004 25.5716 22.3004 25.5195 22.0162C28.8858 20.723 31 18.7462 31 16.4899ZM21.5105 4.57196C21.9296 4.56245 22.3437 4.66434 22.7105 4.86722C23.8679 5.5367 24.3763 7.38249 24.1063 9.9388C24.0874 10.1062 24.0384 10.2893 24.0147 10.4599C22.6853 10.0756 21.3326 9.80038 19.9568 9.63407C19.1245 8.52211 18.2019 7.48068 17.1984 6.52038C18.397 5.43651 19.9049 4.75516 21.5105 4.57196ZM9.01 18.4367C9.28158 18.9735 9.53895 19.5104 9.84526 20.0425C10.1516 20.5746 10.4689 21.0783 10.7926 21.5725C9.9359 21.4247 9.08864 21.2264 8.25526 20.9788C8.45574 20.1171 8.70778 19.2682 9.01 18.4367ZM8.25368 12.0009C9.08706 11.7533 9.93432 11.555 10.7911 11.4072C10.4668 11.8999 10.1511 12.4099 9.84369 12.9372C9.53579 13.4662 9.28 14.0062 9.00842 14.543C8.70737 13.7114 8.45579 12.8641 8.25368 12.0009ZM9.81368 16.4899C10.2331 15.5453 10.7011 14.623 11.2158 13.7267C11.7379 12.8299 12.3042 11.9614 12.9147 11.1214C13.8921 11.0251 14.92 10.9635 16 10.9635C17.0789 10.9646 18.1063 11.0172 19.0821 11.1214C19.6927 11.9634 20.2612 12.835 20.7858 13.733C21.2995 14.6288 21.7663 15.5477 22.1863 16.4899C21.3466 18.3825 20.3132 20.1832 19.1026 21.863C17.0391 22.0754 14.9593 22.0754 12.8958 21.863C12.2923 21.0211 11.7305 20.1501 11.2126 19.253C10.6991 18.3567 10.2321 17.4344 9.81368 16.4899ZM22.1547 20.0425C22.4705 19.5104 22.72 18.9735 22.9916 18.4367C23.2926 19.2693 23.5442 20.1172 23.7463 20.9804C22.9121 21.2247 22.065 21.4229 21.2089 21.5741C21.5279 21.0783 21.8468 20.5714 22.1516 20.0425H22.1547ZM22.9916 14.543C22.72 14.0062 22.4626 13.4693 22.1547 12.9372C21.8536 12.4178 21.5377 11.9071 21.2074 11.4056C22.0642 11.5551 22.9095 11.753 23.7432 11.9993C23.5427 12.8616 23.2907 13.711 22.9884 14.543H22.9916ZM15.9984 7.55301C16.63 8.14564 17.2247 8.77354 17.7826 9.4367C17.1984 9.40407 16.6042 9.3867 16 9.38459C15.0937 9.38143 14.8 9.40512 14.2142 9.4367C14.7721 8.77354 15.3668 8.14564 15.9984 7.55301ZM9.28947 4.8688C9.6563 4.66592 10.0704 4.56403 10.4895 4.57354C12.0938 4.75693 13.6005 5.43768 14.7984 6.52038C13.7949 7.48068 12.8723 8.52211 12.04 9.63407C10.6653 9.80038 9.31316 10.0762 7.98368 10.4614C7.96 10.2893 7.90947 10.1062 7.89211 9.9388C7.62211 7.38249 8.13053 5.53828 9.28947 4.8688ZM2.57895 16.4899C2.57895 15.0688 4.11684 13.6004 6.75526 12.533C7.09947 13.8862 7.55105 15.2093 8.10684 16.4899C7.55105 17.7704 7.09947 19.0951 6.75526 20.4467C4.11684 19.3793 2.57895 17.9109 2.57895 16.4899ZM9.28947 28.1125C8.13053 27.4446 7.62211 25.5972 7.89211 23.0409C7.90947 22.8735 7.96 22.6904 7.98368 22.5183C9.31211 22.9025 10.6616 23.1783 12.0321 23.3456C12.871 24.4619 13.7987 25.5085 14.8063 26.4751C12.5626 28.2262 10.5211 28.8246 9.28947 28.1125ZM14.2 23.5414C14.7895 23.5762 15.3895 23.5941 16 23.5951C16.6105 23.5941 17.21 23.5762 17.7984 23.5414C17.237 24.2161 16.636 24.8567 15.9984 25.4599C15.3614 24.8566 14.7609 24.216 14.2 23.5414ZM22.7105 28.1125C21.4758 28.8246 19.4342 28.2262 17.1842 26.4735C18.1938 25.5093 19.1217 24.4631 19.9584 23.3456C21.3283 23.1787 22.6826 22.9026 24.0084 22.5199C24.0321 22.6904 24.0811 22.8735 24.1 23.0409C24.3763 25.5972 23.8663 27.4446 22.7105 28.1125ZM25.2368 20.4483C24.8945 19.0951 24.4447 17.7714 23.8916 16.4899C24.4484 15.2056 24.8989 13.8862 25.2432 12.5314C27.8816 13.6004 29.4211 15.0688 29.4211 16.4899C29.4211 17.9109 27.8816 19.3793 25.2432 20.4483H25.2368Z" fill="black"/>
<path d="M15.9958 19.2888C16.5553 19.2907 17.1028 19.1266 17.569 18.8174C18.0353 18.5082 18.3994 18.0677 18.6154 17.5516C18.8314 17.0355 18.8895 16.4669 18.7824 15.9178C18.6753 15.3687 18.4078 14.8636 18.0138 14.4664C17.6197 14.0693 17.1168 13.7979 16.5685 13.6865C16.0202 13.5751 15.4512 13.6288 14.9334 13.8408C14.4156 14.0527 13.9723 14.4134 13.6595 14.8772C13.3466 15.3411 13.1783 15.8872 13.1758 16.4467V16.4562C13.1743 16.8275 13.2462 17.1955 13.3873 17.539C13.5283 17.8825 13.7358 18.1948 13.9977 18.4579C14.2597 18.7211 14.5711 18.9299 14.914 19.0725C15.2568 19.2151 15.6245 19.2886 15.9958 19.2888Z" fill="black"/>
</svg>
