<svg width="32" height="32" viewBox="0 0 32 32" fill="none" xmlns="http://www.w3.org/2000/svg">
<path d="M16.6508 19.1078C16.1005 19.3606 15.4977 19.6901 14.2908 20.3524C13.8332 20.6098 13.355 20.8672 12.91 21.1097C12.8791 21.0789 12.8471 21.04 12.8162 21.0079C10.4288 18.4569 6.01304 16.6551 6.20065 13.229C6.27043 11.9809 6.69942 8.70456 14.6809 4.72584C21.2495 1.48842 26.4763 2.38529 27.3789 4.37465C28.6762 7.21054 24.5773 12.4877 17.7936 13.253C17.0428 13.4052 16.2674 13.3867 15.5247 13.199C14.782 13.0113 14.0909 12.6591 13.5026 12.1685C13.1434 11.7784 13.0896 11.7555 12.9569 11.8333C12.7384 11.9477 12.8791 12.3012 12.9569 12.5037C13.2157 12.9722 13.5658 13.3841 13.9864 13.7149C14.4071 14.0458 14.8899 14.289 15.4062 14.4301C18.0757 15.0071 20.8591 14.7314 23.3636 13.6419C27.475 12.0507 30.685 7.62695 29.7446 3.9182C28.8009 0.157981 22.5594 -1.08208 16.6542 1.01596C12.9561 2.26219 9.53935 4.224 6.59875 6.78956C3.3453 9.83252 2.83052 12.4774 3.04101 13.5847C3.79831 17.5165 9.21843 20.0756 11.392 21.9712C11.2791 22.0322 11.1803 22.0867 11.0957 22.1347C10.0112 22.6736 5.8769 24.8345 4.84619 27.1202C3.67591 29.7101 5.0338 31.5668 5.93067 31.8161C7.28225 32.1402 8.70132 32.034 9.98957 31.5122C11.2778 30.9904 12.3708 30.0792 13.1159 28.9059C13.7489 27.9331 14.1375 26.8219 14.2488 25.6668C14.3602 24.5116 14.1909 23.3466 13.7554 22.2709C14.0123 22.0658 14.2863 21.8832 14.5745 21.7252C15.1282 21.398 15.6555 21.0754 16.1234 20.826C17.7257 20.0766 19.4738 19.6902 21.2427 19.6947C24.956 20.1317 25.6893 22.4482 25.5486 23.424C25.4825 23.7701 25.3432 24.0981 25.14 24.386C24.9368 24.6739 24.6743 24.9149 24.3703 25.093C24.1129 25.2566 24.0271 25.3115 24.05 25.4282C24.0809 25.5998 24.2056 25.5918 24.424 25.5609C24.982 25.3846 25.4735 25.0436 25.834 24.5828C26.1946 24.122 26.4073 23.5629 26.4443 22.979C26.5587 20.6911 24.3771 18.1812 20.5151 18.2041C19.3588 18.2074 18.2142 18.4355 17.145 18.8756C16.9734 18.9465 16.8068 19.0228 16.6451 19.1044L16.6508 19.1078ZM11.1311 28.0754C9.89795 29.4172 8.182 29.924 7.44071 29.495C6.63993 29.0374 6.95681 27.0527 8.47028 25.633C9.3659 24.8245 10.3348 24.101 11.3645 23.472C11.5441 23.3576 11.8095 23.2066 12.1287 23.0145L12.2145 22.9676L12.4021 22.8532C12.6718 23.7582 12.6962 24.7186 12.4729 25.6362C12.2496 26.5537 11.7866 27.3955 11.1311 28.0754Z" fill="black"/>
</svg>
