<svg width="32" height="32" viewBox="0 0 32 32" fill="none" xmlns="http://www.w3.org/2000/svg">
<path d="M1.625 15.9999H27.8748C28.0406 15.9999 28.1995 15.934 28.3167 15.8168C28.434 15.6996 28.4998 15.5407 28.4998 15.3749V10.9999C28.4999 10.8357 28.4677 10.6731 28.405 10.5214C28.3422 10.3696 28.2502 10.2317 28.1342 10.1156L19.3842 1.36562C19.2681 1.24958 19.1302 1.15756 18.9784 1.09483C18.8267 1.03209 18.6641 0.999871 18.4999 1H3.49998C2.83695 1 2.20107 1.26339 1.73223 1.73223C1.26339 2.20107 1 2.83695 1 3.49998V15.3749C1 15.5407 1.06585 15.6996 1.18306 15.8168C1.30027 15.934 1.45924 15.9999 1.625 15.9999ZM18.4999 4.12498L25.3748 10.9999H18.4999V4.12498ZM30.3748 29.8326C30.3468 30.1539 30.1984 30.4527 29.9594 30.6692C29.7203 30.8857 29.4082 31.0038 29.0857 30.9998H24.7498C24.4183 30.9998 24.1004 30.8681 23.8659 30.6337C23.6315 30.3992 23.4998 30.0813 23.4998 29.7498V21.042C23.4959 20.7196 23.6139 20.4075 23.8304 20.1684C24.0469 19.9294 24.3457 19.781 24.667 19.753C24.838 19.7416 25.0095 19.7656 25.1708 19.8233C25.3322 19.881 25.4799 19.9713 25.6049 20.0885C25.7299 20.2057 25.8295 20.3474 25.8974 20.5047C25.9653 20.662 26.0002 20.8316 25.9998 21.003V28.5029H29.1248C29.2959 28.5026 29.4652 28.5373 29.6223 28.6051C29.7794 28.6728 29.9209 28.7721 30.0381 28.8967C30.1553 29.0214 30.2456 29.1688 30.3035 29.3297C30.3614 29.4907 30.3857 29.6619 30.3748 29.8326ZM9.09682 27.9232C9.0481 28.4013 8.89406 28.8627 8.64578 29.2741C8.3975 29.6856 8.06114 30.0369 7.66089 30.3029C6.84996 30.8435 5.84371 30.9998 4.9281 30.9998C4.12955 30.9956 3.33472 30.8906 2.56249 30.6873C2.24699 30.5949 1.9806 30.3819 1.82101 30.0945C1.66141 29.8071 1.62147 29.4684 1.70983 29.1517C1.79819 28.8351 2.00773 28.566 2.29308 28.4027C2.57843 28.2395 2.9166 28.1952 3.23436 28.2795C3.91873 28.467 5.57028 28.7014 6.28902 28.2232C6.42808 28.1311 6.57496 27.9857 6.6234 27.6092C6.67808 27.192 6.51246 26.9686 4.62654 26.4233C3.16561 26.0014 0.720314 25.2936 1.03281 22.8123C1.08145 22.3436 1.23265 21.8914 1.47568 21.4877C1.71871 21.084 2.04761 20.7387 2.43905 20.4764C4.28904 19.2264 7.23902 19.9592 7.5687 20.0452C7.72752 20.087 7.87653 20.1598 8.00724 20.2592C8.13795 20.3587 8.24779 20.4829 8.33049 20.6248C8.4132 20.7667 8.46714 20.9235 8.48924 21.0862C8.51135 21.249 8.50118 21.4145 8.45932 21.5733C8.41746 21.7321 8.34473 21.8811 8.24528 22.0118C8.14583 22.1425 8.02162 22.2524 7.87972 22.3351C7.73782 22.4178 7.58102 22.4717 7.41827 22.4938C7.25553 22.5159 7.09002 22.5058 6.93121 22.4639C6.22965 22.2811 4.5531 22.0639 3.83435 22.5514C3.74014 22.615 3.66258 22.7002 3.60819 22.8C3.55381 22.8998 3.5242 23.0112 3.52186 23.1248C3.50311 23.2655 3.49998 23.2936 3.69685 23.4217C4.05779 23.6545 4.7031 23.8405 5.32966 24.0217C6.85933 24.4639 9.44681 25.2186 9.09682 27.9232ZM20.1905 28.4279C20.7236 27.4989 21.0027 26.4459 20.9999 25.3748C20.9999 22.2733 18.7577 19.7499 15.9999 19.7499C13.2421 19.7499 10.9999 22.2733 10.9999 25.3748C10.9999 28.4764 13.2421 30.9998 15.9999 30.9998C16.8828 30.9965 17.7458 30.737 18.4842 30.2529L18.8655 30.6342C18.987 30.7556 19.1323 30.8507 19.2922 30.9135C19.4521 30.9763 19.6233 31.0055 19.795 30.9992C19.9667 30.9929 20.1352 30.9512 20.2901 30.8769C20.445 30.8025 20.5829 30.697 20.6952 30.567C20.9003 30.3191 21.0043 30.0031 20.9867 29.6819C20.969 29.3607 20.8309 29.058 20.5999 28.8342L20.1905 28.4279ZM15.9999 28.4998C14.6218 28.4998 13.4999 27.0936 13.4999 25.3748C13.4999 23.6561 14.6218 22.2498 15.9999 22.2498C17.378 22.2498 18.4999 23.6561 18.4999 25.3748C18.5001 25.7732 18.4379 26.1691 18.3155 26.5482L18.1702 26.4029C17.9395 26.1652 17.6258 26.0258 17.2948 26.0139C16.9637 26.0019 16.6409 26.1184 16.3936 26.3389C16.2715 26.4535 16.1737 26.5915 16.106 26.7447C16.0383 26.8979 16.002 27.0631 15.9994 27.2306C15.9968 27.398 16.0278 27.5643 16.0907 27.7195C16.1536 27.8748 16.2471 28.0158 16.3655 28.1342L16.628 28.3951C16.4254 28.4628 16.2135 28.4981 15.9999 28.4998Z" fill="black"/>
</svg>
