<svg width="32" height="32" viewBox="0 0 32 32" fill="none" xmlns="http://www.w3.org/2000/svg">
<g clip-path="url(#clip0_770_6157)">
<path d="M29.2305 10.6941C28.9797 11.3654 28.3495 11.3654 28.0988 10.6941C27.848 10.0229 28.1632 9.17915 28.6646 9.17915C29.166 9.17915 29.4812 10.0228 29.2305 10.6941ZM30.5409 8.79571C30.083 8.79571 29.7953 9.60371 30.0242 10.2466C30.2532 10.8896 30.8287 10.8895 31.0577 10.2466C31.2866 9.60371 30.9988 8.79571 30.5409 8.79571ZM30.9303 11.7201C31.3966 11.2441 31.6803 10.4832 31.678 9.54884C31.6722 7.17884 29.949 6.1604 28.8452 7.41659C28.021 6.88002 27.0707 7.2939 26.6252 8.40834C25.9168 9.02665 25.7944 9.27146 25.4608 11.4261C24.9957 12.3563 24.7689 13.4385 23.1502 13.3818C23.8155 12.5233 22.6783 11.4004 21.5146 11.8666C21.223 11.1005 19.0042 9.74915 17.7359 9.2624C15.3731 8.35552 12.5499 8.49377 10.5068 9.20277C7.6861 10.1816 5.89697 12.6865 5.24535 15.2374L1.59785 13.9574C0.0449709 13.3082 -0.481404 13.8773 0.489846 14.8541C3.14035 17.0224 4.05485 17.165 4.62872 17.8417C2.68728 19.9255 2.74435 20.5703 3.29135 22.5096C3.66053 23.8185 7.10572 24.5392 7.75672 24.1758C8.23916 23.9066 8.73635 23.3277 8.73866 23.1965C8.75178 22.4388 7.11728 20.9994 8.04778 19.7143C8.70303 20.2359 10.6999 20.9071 11.4942 21.0199C11.0977 21.6765 11.0431 22.4813 11.1669 23.1175C11.2952 24.3485 13.0969 24.8004 14.6315 25.0529C16.0864 24.9365 17.4728 25.6783 18.5023 24.0765C18.6768 23.0597 18.4987 21.7498 17.9254 20.9454C18.34 21.0756 18.7297 21.0115 19.1218 20.8606C19.1656 22.3838 19.9398 23.7188 21.1866 23.7082C22.9343 23.8537 23.8753 23.6139 24.6972 22.2605C25.1697 20.8688 23.9973 19.2928 22.2957 17.8074C25.2679 17.9949 24.858 15.496 26.795 15.4283C28.5327 15.4023 29.1791 15.2725 29.4695 14.7572C28.4077 14.6322 27.7366 14.1786 27.2158 13.2538C27.0925 13.0139 27.4295 12.8275 27.5666 13.0563C27.9972 13.8209 28.5616 14.3401 29.9153 14.3886C31.089 14.413 31.3069 14.3362 31.9046 13.3643C32.2165 12.8541 31.731 12.4346 30.9304 11.7201M21.152 15.4346C20.7152 17.5877 19.4837 20.4985 18.3187 20.2111C15.9517 19.5614 13.647 19.5889 12.1156 20.2823C10.9993 20.2652 9.96997 19.5563 8.88447 19.3014C8.2206 19.0025 6.99985 17.2406 5.2031 17.2728C4.17597 16.2661 4.09003 16.0685 5.22703 16.0707C7.32453 16.5928 7.91991 16.9308 9.66553 18.2095C12.16 19.6123 14.1383 18.1361 15.699 18.0216C17.0693 17.8968 17.9563 19.0016 18.8575 18.5939C19.5859 18.2718 20.047 17.1433 20.5349 15.2448C21.243 12.2566 22.1096 12.3433 22.547 12.8025C22.4337 13.1972 21.5988 13.3265 21.152 15.4346ZM29.2487 10.9728C28.7505 12.4476 27.4987 12.4476 27.0006 10.9728C26.5025 9.49809 27.1285 7.64452 28.1246 7.64452C29.1207 7.64452 29.7467 9.49802 29.2487 10.9728ZM29.4618 11.6166C30.1218 10.3869 30.0085 8.70221 29.1959 7.7304C29.4005 7.48384 29.65 7.33165 29.9307 7.33165C30.922 7.33165 31.5449 9.18509 31.0493 10.66C30.7107 11.6673 30.0223 11.9855 29.4618 11.6166" fill="black"/>
</g>
<defs>
<clipPath id="clip0_770_6157">
<rect width="32" height="32" fill="white"/>
</clipPath>
</defs>
</svg>
